<?xml version="1.0" encoding="utf-8"?>
<!-- Generator: Adobe Illustrator 27.5.0, SVG Export Plug-In . SVG Version: 6.00 Build 0)  -->
<svg version="1.1" xmlns="http://www.w3.org/2000/svg" xmlns:xlink="http://www.w3.org/1999/xlink" x="0px" y="0px"
	 viewBox="0 0 500 500.001" style="enable-background:new 0 0 500 500.001;" xml:space="preserve">

<g id="OBJECTS">
	<g>
		<g>
			<path style="fill:#FFFFFF;stroke:#000000;stroke-linecap:round;stroke-linejoin:round;stroke-miterlimit:10;" d="
				M250.582,260.392c-6.227-0.892-14.689,7.678-19.854,10.608c-4.504,2.557-9.266,3.844-14.595,3.162
				c-2.395-0.307-3.772-1.146-5.581-2.524c-1.213-0.927-2.04-2.212-3.719-2.332c-1.835-0.132-1.855,0.538-3.468,1.468
				c-2.439,1.404-5.379,1.411-8.126,1.231c-14.849-0.977-25.314-11.248-38.573-16.327c-5.133-1.966-10.449-4.488-16.052-4.69
				c-3.704-0.133-7.229,1.137-10.695,1.49c3.711-4.163,11.303-7.819,16.575-9.332c5.934-1.699,12.183-3.872,18.325-4.495
				c5.924-0.602,12.032-0.775,17.887-0.139c5.002,0.546,9.732,2.07,14.665,3.013c1.227-3.4-1.064-6.609,3.886-7.537
				c5.021-0.941,10.56,2.773,14.363,5.61c4.839,3.613,9.346,7.571,14.203,11.139C235.803,255.13,243.378,258.608,250.582,260.392z"
				/>
			<g>
				<path style="fill:none;stroke:#000000;stroke-linecap:round;stroke-linejoin:round;stroke-miterlimit:10;" d="M249.519,260.113
					c0,0-4.271,2.447-36.089-3.512c-31.816-5.96-63.959-16.522-83.511-4.125"/>
				<path style="fill:none;stroke:#000000;stroke-linecap:round;stroke-linejoin:round;stroke-miterlimit:10;" d="M246.658,260.565
					c0,0-16.073-2.06-31.396-11.438"/>
				<path style="fill:none;stroke:#000000;stroke-linecap:round;stroke-linejoin:round;stroke-miterlimit:10;" d="M242.295,260.554
					c0,0-22.43-0.203-39.891,1.232"/>
				<path style="fill:none;stroke:#000000;stroke-linecap:round;stroke-linejoin:round;stroke-miterlimit:10;" d="M231.479,259.535
					c0,0-19.179-5.748-37.039-13.576"/>
				<path style="fill:none;stroke:#000000;stroke-linecap:round;stroke-linejoin:round;stroke-miterlimit:10;" d="M214.645,256.826
					c-0.549,0.073-26.277,2.022-43.156-1.078"/>
				<path style="fill:none;stroke:#000000;stroke-linecap:round;stroke-linejoin:round;stroke-miterlimit:10;" d="M206.893,255.319
					c0,0-6.233-5.394-22.592-9.134"/>
				<path style="fill:none;stroke:#000000;stroke-linecap:round;stroke-linejoin:round;stroke-miterlimit:10;" d="M240.509,260.545
					c0,0-17.783,4.475-28.108,5.338"/>
			</g>
		</g>
		<g>
			<path style="fill:#FFFFFF;stroke:#000000;stroke-linecap:round;stroke-linejoin:round;stroke-miterlimit:10;" d="
				M207.444,429.963c-0.015-2.69-5.246-7.386-6.436-9.836c-2.287-4.704-3.943-10.054-6.933-14.381
				c-1.244-1.806-2.737-3.13-3.83-5.072c-1.119-1.984-2.396-3.599-3.764-5.397c-2.396-3.148-4.103-6.827-6.313-10.102
				c-3.217-4.764-6.191-9.573-7.381-15.297c-1.03-4.963-0.283-8.101,1.61-12.555c-4.533-2.156-6.021-10.108-7.703-14.278
				c-2.412-5.988-3.502-12.966-3.094-19.404c0.411-6.5,0.955-12.949,1.758-19.471c0.694-5.626-0.328-11.051-1-16.614
				c-0.341,1.287,1,3.581,1.712,4.712c1.686,2.688,3.681,5.446,5.53,8.027c1.98,2.763,4.976,4.383,7.477,6.648
				c2.858,2.587,5.545,4.999,8.549,7.425c7.899,6.378,15.691,12,18.46,22.149c0.73,2.686-0.303,5.251,1.889,7.14
				c3.499,3.014,6.405,5.277,8.513,9.692c5.692,11.956,6.02,26.301,2.496,38.967c-1.69,6.077-2.125,12.493-4.171,18.464
				c-0.937,2.739-1.948,5.447-3.017,8.125C210.962,420.999,209.019,428.339,207.444,429.963z"/>
			<g>
				<path style="fill:none;stroke:#000000;stroke-linecap:round;stroke-linejoin:round;stroke-miterlimit:10;" d="M207.444,429.963
					c0,0,4.22-10.807-5.497-40.433c-9.716-29.627-31.388-66.497-33.12-91.211"/>
				<path style="fill:none;stroke:#000000;stroke-linecap:round;stroke-linejoin:round;stroke-miterlimit:10;" d="M208.354,422.245
					c0,0,2.334-47.664-10.332-77.858"/>
				<path style="fill:none;stroke:#000000;stroke-linecap:round;stroke-linejoin:round;stroke-miterlimit:10;" d="M206.453,406.076
					c0,0-16.11-69.537-16.008-81.438"/>
				<path style="fill:none;stroke:#000000;stroke-linecap:round;stroke-linejoin:round;stroke-miterlimit:10;" d="M192.699,365.745
					c0,0-21.339-30.336-24.767-41.998"/>
				<path style="fill:none;stroke:#000000;stroke-linecap:round;stroke-linejoin:round;stroke-miterlimit:10;" d="M199.719,383.15
					c0,0-15.978-19.963-23.852-25.748"/>
				<path style="fill:none;stroke:#000000;stroke-linecap:round;stroke-linejoin:round;stroke-miterlimit:10;" d="M206.045,404.294
					c0,0-14.056-13.184-23.657-23.801"/>
			</g>
		</g>
		<g>
			<path d="M185.983,454.655c0,0,2.121-2.358,5.725-6.713c3.597-4.341,8.656-10.628,14.46-18.385
				c2.918-3.866,5.989-8.122,9.208-12.647c3.179-4.551,6.516-9.365,9.827-14.439c3.349-5.049,6.668-10.358,9.996-15.781
				c3.28-5.451,6.554-11.026,9.668-16.69c1.559-2.831,3.12-5.662,4.592-8.525c0.746-1.427,1.491-2.85,2.233-4.27
				c0.715-1.434,1.428-2.863,2.137-4.287c1.444-2.837,2.777-5.697,4.104-8.52c1.36-2.809,2.568-5.643,3.806-8.41
				c2.43-5.552,4.647-10.979,6.601-16.181c1.025-2.584,1.896-5.142,2.764-7.609c0.434-1.233,0.859-2.446,1.277-3.637
				c0.383-1.202,0.758-2.382,1.126-3.537c0.711-2.318,1.486-4.514,2.057-6.65c0.601-2.128,1.17-4.146,1.705-6.043
				c1.013-3.81,1.778-7.161,2.464-9.909c1.141-5.546,1.793-8.716,1.793-8.716l0.004-0.02c0.056-0.27,0.319-0.444,0.59-0.389
				c0.267,0.055,0.439,0.313,0.391,0.58c0,0-0.586,3.197-1.613,8.794c-0.628,2.772-1.326,6.158-2.263,10.01
				c-0.497,1.918-1.026,3.96-1.584,6.112c-0.527,2.161-1.259,4.383-1.925,6.73c-0.346,1.17-0.697,2.364-1.057,3.582
				c-0.395,1.206-0.797,2.434-1.206,3.684c-0.819,2.499-1.641,5.094-2.616,7.714c-1.854,5.275-3.968,10.784-6.294,16.424
				c-1.185,2.811-2.341,5.691-3.648,8.546c-1.275,2.869-2.556,5.778-3.948,8.663c-0.684,1.449-1.37,2.903-2.059,4.362
				c-0.717,1.445-1.434,2.895-2.155,4.346c-1.421,2.915-2.931,5.798-4.439,8.683c-3.014,5.771-6.19,11.454-9.377,17.015
				c-3.233,5.532-6.463,10.952-9.727,16.11c-3.227,5.183-6.484,10.104-9.591,14.761c-3.146,4.629-6.151,8.986-9.011,12.949
				c-5.687,7.949-10.661,14.409-14.211,18.886c-3.54,4.468-5.704,6.983-5.703,6.982l-0.014,0.017
				c-0.98,1.139-2.697,1.268-3.836,0.287c-1.139-0.979-1.268-2.697-0.288-3.836C185.954,454.688,185.973,454.666,185.983,454.655z"
				/>
		</g>
		<g>
			<path d="M224.254,213.365c0,0,5.854,7.193,12.902,19.119c1.781,2.968,3.585,6.255,5.444,9.759
				c1.821,3.523,3.689,7.269,5.442,11.229c1.803,3.937,3.45,8.101,5.055,12.357c0.763,2.143,1.528,4.306,2.243,6.494
				c0.665,2.205,1.421,4.393,1.995,6.635l0.916,3.346c0.297,1.117,0.537,2.248,0.808,3.368c0.255,1.124,0.544,2.238,0.77,3.364
				c0.218,1.126,0.436,2.25,0.652,3.369c0.862,4.478,1.442,8.935,1.859,13.263c0.229,2.162,0.281,4.303,0.426,6.392
				c0.115,2.091,0.065,4.143,0.105,6.138c-0.065,3.988-0.216,7.767-0.616,11.231c-0.085,0.868-0.168,1.718-0.249,2.548
				c-0.084,0.83-0.241,1.632-0.353,2.419c-0.245,1.571-0.477,3.062-0.695,4.463c-0.603,2.77-1.092,5.196-1.58,7.173
				c-1.103,3.923-1.734,6.164-1.734,6.164c-0.207,0.736-0.972,1.165-1.708,0.958c-0.735-0.207-1.164-0.972-0.957-1.708
				c0.001-0.003,0.001-0.006,0.002-0.009l0.026-0.089c0,0,0.642-2.18,1.764-5.993c0.499-1.923,1.004-4.286,1.628-6.985
				c0.229-1.366,0.474-2.82,0.73-4.354c0.119-0.768,0.283-1.55,0.375-2.361c0.089-0.811,0.18-1.642,0.273-2.49
				c0.434-3.386,0.623-7.086,0.735-10.997c-0.016-1.957,0.059-3.971-0.03-6.025c-0.118-2.054-0.144-4.158-0.343-6.287
				c-0.358-4.262-0.877-8.658-1.675-13.084c-0.2-1.106-0.401-2.218-0.604-3.332c-0.208-1.112-0.482-2.216-0.72-3.329
				c-0.254-1.109-0.477-2.229-0.757-3.336l-0.866-3.318c-0.54-2.223-1.263-4.396-1.894-6.586c-0.682-2.175-1.415-4.325-2.145-6.456
				c-1.539-4.235-3.122-8.385-4.864-12.312c-1.691-3.949-3.502-7.689-5.269-11.211c-1.805-3.502-3.559-6.791-5.293-9.763
				c-3.42-5.971-6.591-10.756-8.871-14.055c-2.292-3.3-3.711-5.084-3.711-5.084c-0.172-0.216-0.136-0.531,0.08-0.703
				C223.767,213.114,224.082,213.153,224.254,213.365z"/>
		</g>
		<g>
			<path style="fill:#FFFFFF;stroke:#000000;stroke-linecap:round;stroke-linejoin:round;stroke-miterlimit:10;" d="
				M188.856,458.651c0,0,5.491-19.5,6.321-37.975c0.833-18.472-7.512-36.473-2.218-51.5c0,0-18.022,19.719-21.543,43.966
				C167.895,437.391,175.784,449.243,188.856,458.651z"/>
			<g>
				<path style="fill:none;stroke:#000000;stroke-linecap:round;stroke-linejoin:round;stroke-miterlimit:10;" d="M188.856,458.651
					c0,0-6.991-19.391-6.098-42.486c0.893-23.098,4.571-35.826,4.571-35.826"/>
				<path style="fill:none;stroke:#000000;stroke-linecap:round;stroke-linejoin:round;stroke-miterlimit:10;" d="M186.134,449.022
					c0,0-4.676-5.125-8.331-18.287"/>
				<path style="fill:none;stroke:#000000;stroke-linecap:round;stroke-linejoin:round;stroke-miterlimit:10;" d="M183.976,437.673
					c0,0-9.247-19.539-7.919-34.628"/>
				<path style="fill:none;stroke:#000000;stroke-linecap:round;stroke-linejoin:round;stroke-miterlimit:10;" d="M182.683,420.593
					c0,0-3.901-19.714-2.059-29.12"/>
				<path style="fill:none;stroke:#000000;stroke-linecap:round;stroke-linejoin:round;stroke-miterlimit:10;" d="M189.421,394.715
					c0,0-3.032,10.765-6.456,17.114"/>
				<path style="fill:none;stroke:#000000;stroke-linecap:round;stroke-linejoin:round;stroke-miterlimit:10;" d="M191.938,405.452
					c-0.046,0.507-3.32,12.49-8.974,23.092"/>
				<path style="fill:none;stroke:#000000;stroke-linecap:round;stroke-linejoin:round;stroke-miterlimit:10;" d="M191.645,415.998
					c-0.073,0.829-1.043,19.402-6.641,28.879"/>
			</g>
		</g>
		<g>
			<path style="fill:#FFFFFF;stroke:#000000;stroke-linecap:round;stroke-linejoin:round;stroke-miterlimit:10;" d="
				M245.245,130.624c-13.898,0.051-33.973-5.654-43.204-19.706c-5.671-8.631-8.214-16.891-9.887-27.058
				c-2.046-12.433-4.824-24.368-14.283-33.3c0,0,13.898,10.235,32.327,19.922C228.628,80.169,248.87,104.641,245.245,130.624z"/>
			<g>
				<path style="fill:none;stroke:#000000;stroke-linecap:round;stroke-linejoin:round;stroke-miterlimit:10;" d="M190.563,63.422
					c0,0,34.17,25.664,54.682,67.202"/>
				<path style="fill:none;stroke:#000000;stroke-linecap:round;stroke-linejoin:round;stroke-miterlimit:10;" d="M199.432,87.767
					c0,0,20.885,4.869,28.727,14.987"/>
				<path style="fill:none;stroke:#000000;stroke-linecap:round;stroke-linejoin:round;stroke-miterlimit:10;" d="M196.348,78.461
					c0,0,16.67,6.751,25.301,15.908"/>
				<path style="fill:none;stroke:#000000;stroke-linecap:round;stroke-linejoin:round;stroke-miterlimit:10;" d="M229.677,104.842
					c0,0-8.745-20.852-15.882-28.554"/>
				<path style="fill:none;stroke:#000000;stroke-linecap:round;stroke-linejoin:round;stroke-miterlimit:10;" d="M235.868,113.999
					c0,0-2.118-11.084-9.444-26.686"/>
				<path style="fill:none;stroke:#000000;stroke-linecap:round;stroke-linejoin:round;stroke-miterlimit:10;" d="M204.83,102.05
					c0,0,29.814,8.264,36.791,21.643"/>
			</g>
		</g>
		<g>
			<g>
				<path style="fill:#FFFFFF;stroke:#000000;stroke-linecap:round;stroke-linejoin:round;stroke-miterlimit:10;" d="
					M285.905,127.027c0,0,12.33-24.658,8.631-30.822C290.838,90.04,285.165,110.999,285.905,127.027z"/>
				<path style="fill:#FFFFFF;stroke:#000000;stroke-linecap:round;stroke-linejoin:round;stroke-miterlimit:10;" d="
					M283.387,157.24c0,0,18.001-18.273,16.274-24.684C297.936,126.146,284.866,147.65,283.387,157.24z"/>
				<path style="fill:#FFFFFF;stroke:#000000;stroke-linecap:round;stroke-linejoin:round;stroke-miterlimit:10;" d="
					M284.866,140.346c0,0-5.671-26.299-11.836-32.801C266.866,101.042,269.332,121.21,284.866,140.346z"/>
				<path style="fill:#FFFFFF;stroke:#000000;stroke-linecap:round;stroke-linejoin:round;stroke-miterlimit:10;" d="
					M282.536,104.601c0,0-7.645-18.987-17.508-22.932C255.166,77.724,274.398,94.985,282.536,104.601z"/>
				<path style="fill:#FFFFFF;stroke:#000000;stroke-linecap:round;stroke-linejoin:round;stroke-miterlimit:10;" d="
					M275.003,80.342c0,0-2.079-28.373-6.521-31.683C264.038,45.35,270.587,73.82,275.003,80.342z"/>
				<path style="fill:#FFFFFF;stroke:#000000;stroke-linecap:round;stroke-linejoin:round;stroke-miterlimit:10;" d="
					M276.11,178.132c0,0,9.496-10.823,13.687-9.365C293.99,170.225,284.866,177.35,276.11,178.132z"/>
				<path style="fill:#FFFFFF;stroke:#000000;stroke-linecap:round;stroke-linejoin:round;stroke-miterlimit:10;" d="
					M278.445,170.718c0,0-2.292-30.135-8.539-30.972C263.66,138.909,273.503,160.608,278.445,170.718z"/>
				<path style="fill:#FFFFFF;stroke:#000000;stroke-linecap:round;stroke-linejoin:round;stroke-miterlimit:10;" d="
					M267.895,195.46c0,0,3.656-25.085-1.522-22.078C261.194,176.389,267.895,195.46,267.895,195.46z"/>
			</g>
			<g>
				<path d="M275.471,79.718c0,0,0.843,2.135,2.19,5.939c0.339,0.949,0.715,2.001,1.124,3.145c0.378,1.154,0.786,2.403,1.224,3.737
					c0.437,1.335,0.901,2.755,1.391,4.252c0.466,1.506,0.872,3.116,1.342,4.782c0.46,1.669,0.938,3.409,1.434,5.209
					c0.197,0.941,0.404,1.835,0.588,2.791c0.163,0.958,0.351,1.933,0.5,2.918c0.609,3.936,1.02,8.11,1.25,12.438
					c0.442,8.65,0.306,17.943-1.105,27.136c-0.702,4.59-1.743,9.162-3.295,13.516c-0.78,2.125-1.522,4.239-2.313,6.318
					c-0.824,2.075-1.637,4.125-2.438,6.141c-3.321,7.956-6.421,15.38-9.078,21.745c-1.286,3.187-2.459,6.108-3.452,8.71
					c-0.94,2.616-1.81,4.884-2.44,6.771c-1.19,3.789-1.871,5.954-1.871,5.954l-0.028,0.092c-0.267,0.848-1.169,1.319-2.017,1.052
					c-0.848-0.266-1.319-1.169-1.053-2.017c0.002-0.005,0.006-0.018,0.008-0.023c0,0,0.73-2.21,2.01-6.078
					c0.673-1.917,1.586-4.2,2.581-6.841c1.044-2.616,2.271-5.544,3.613-8.731c2.752-6.321,5.962-13.696,9.402-21.598
					c0.819-1.978,1.653-3.988,2.497-6.023c0.816-2.054,1.594-4.166,2.404-6.276c1.551-4.152,2.63-8.565,3.386-13.048
					c1.519-8.974,1.798-18.165,1.487-26.721c-0.163-4.282-0.507-8.416-1.049-12.298c-0.132-0.97-0.299-1.911-0.442-2.848
					c-0.163-0.931-0.368-1.882-0.538-2.763c-0.464-1.791-0.912-3.521-1.343-5.183c-0.441-1.659-0.819-3.26-1.259-4.763
					c-0.465-1.497-0.906-2.916-1.32-4.25c-0.415-1.335-0.803-2.584-1.162-3.739c-0.39-1.144-0.747-2.195-1.07-3.145
					c-1.281-3.8-2.094-5.955-2.094-5.955c-0.098-0.258,0.032-0.546,0.291-0.644c0.256-0.097,0.541,0.031,0.642,0.284L275.471,79.718
					z"/>
			</g>
		</g>
		<g>
			<g>
				<path style="fill:#FFFFFF;stroke:#000000;stroke-linecap:round;stroke-linejoin:round;stroke-miterlimit:10;" d="
					M352.609,150.137c0,0,7.943-26.401,14.861-28.35C374.393,119.839,364.143,138.98,352.609,150.137z"/>
				<path style="fill:#FFFFFF;stroke:#000000;stroke-linecap:round;stroke-linejoin:round;stroke-miterlimit:10;" d="
					M333.719,173.849c0,0-0.564-25.645,5.089-29.125C344.461,141.244,339.221,165.855,333.719,173.849z"/>
				<path style="fill:#FFFFFF;stroke:#000000;stroke-linecap:round;stroke-linejoin:round;stroke-miterlimit:10;" d="
					M344.229,160.542c0,0,22.168-15.247,31.112-15.75C384.286,144.29,368.659,157.271,344.229,160.542z"/>
				<path style="fill:#FFFFFF;stroke:#000000;stroke-linecap:round;stroke-linejoin:round;stroke-miterlimit:10;" d="
					M370.442,136.129c0,0,18.588-8.573,28.472-4.68C408.796,135.346,382.96,134.712,370.442,136.129z"/>
				<path style="fill:#FFFFFF;stroke:#000000;stroke-linecap:round;stroke-linejoin:round;stroke-miterlimit:10;" d="
					M392.565,123.644c0,0,20.977-19.22,26.478-18.581C424.546,105.702,400.254,121.927,392.565,123.644z"/>
				<path style="fill:#FFFFFF;stroke:#000000;stroke-linecap:round;stroke-linejoin:round;stroke-miterlimit:10;" d="
					M324.682,194.043c0,0,0.515-14.389-3.535-16.205C317.096,176.024,318.849,187.467,324.682,194.043z"/>
				<path style="fill:#FFFFFF;stroke:#000000;stroke-linecap:round;stroke-linejoin:round;stroke-miterlimit:10;" d="
					M328.069,187.046c0,0,22.338-20.356,27.457-16.681C360.646,174.041,338.6,183.079,328.069,187.046z"/>
				<path style="fill:#FFFFFF;stroke:#000000;stroke-linecap:round;stroke-linejoin:round;stroke-miterlimit:10;" d="
					M318.775,212.285c0,0,14.545-20.76,16.25-15.02C336.731,203.005,318.775,212.285,318.775,212.285z"/>
			</g>
			<g>
				<path d="M393.094,123.766c0,0-2.069,1.011-5.608,2.896c-0.887,0.469-1.868,0.988-2.937,1.554
					c-1.053,0.594-2.192,1.237-3.409,1.924c-1.217,0.687-2.512,1.417-3.876,2.188c-1.352,0.792-2.726,1.698-4.184,2.603
					c-1.453,0.913-2.966,1.865-4.532,2.85c-0.727,0.524-1.529,1.076-2.286,1.641c-0.747,0.583-1.515,1.154-2.275,1.769
					c-3.057,2.454-6.144,5.226-9.199,8.23c-6.094,6.013-12.196,12.893-17.246,20.463c-2.525,3.78-4.767,7.732-6.486,11.816
					c-0.857,2.092-1.74,4.162-2.555,6.217c-0.782,2.06-1.555,4.095-2.314,6.096c-2.917,8.109-5.64,15.678-7.973,22.165
					c-1.21,3.24-2.325,6.212-3.359,8.831c-1.088,2.605-1.989,4.892-2.814,6.748c-1.722,3.692-2.706,5.801-2.706,5.801
					c-0.375,0.805-1.333,1.154-2.138,0.778c-0.806-0.376-1.153-1.333-0.778-2.138c0.003-0.004,0.005-0.009,0.007-0.014l0.046-0.094
					c0,0,0.99-2.042,2.722-5.616c0.836-1.806,1.76-4.052,2.87-6.6c1.061-2.575,2.212-5.505,3.463-8.707
					c2.432-6.454,5.269-13.983,8.309-22.05c0.801-2.016,1.614-4.065,2.439-6.14c0.851-2.055,1.761-4.102,2.65-6.184
					c1.858-4.233,4.236-8.273,6.873-12.096c5.279-7.658,11.554-14.513,17.81-20.503c3.137-2.991,6.299-5.748,9.441-8.193
					c0.785-0.615,1.59-1.196,2.365-1.781c0.79-0.57,1.554-1.079,2.343-1.628c1.596-0.97,3.137-1.908,4.616-2.808
					c1.484-0.89,2.886-1.782,4.257-2.559c1.383-0.753,2.695-1.468,3.929-2.14c1.232-0.671,2.387-1.299,3.454-1.88
					c1.082-0.552,2.077-1.06,2.975-1.518c3.59-1.844,5.667-2.819,5.667-2.819l0.009-0.004c0.25-0.117,0.548-0.01,0.665,0.24
					C393.442,123.352,393.338,123.646,393.094,123.766z"/>
			</g>
		</g>
		<g>
			<g>
				<path style="fill:#FFFFFF;stroke:#000000;stroke-linecap:round;stroke-linejoin:round;stroke-miterlimit:10;" d="
					M270.246,405.431c0,0,20.543-18.386,27.463-16.439C304.632,390.938,285.904,401.927,270.246,405.431z"/>
				<path style="fill:#FFFFFF;stroke:#000000;stroke-linecap:round;stroke-linejoin:round;stroke-miterlimit:10;" d="
					M241.763,415.815c0,0,12.888-22.177,19.528-22.199C267.93,393.595,250.626,411.862,241.763,415.815z"/>
				<path style="fill:#FFFFFF;stroke:#000000;stroke-linecap:round;stroke-linejoin:round;stroke-miterlimit:10;" d="
					M257.671,409.94c0,0,26.863-1.45,34.76,2.784C300.327,416.958,280.221,419.89,257.671,409.94z"/>
				<path style="fill:#FFFFFF;stroke:#000000;stroke-linecap:round;stroke-linejoin:round;stroke-miterlimit:10;" d="
					M292.769,402.779c0,0,20.327,2.375,26.732,10.853C325.902,422.109,304.188,408.099,292.769,402.779z"/>
				<path style="fill:#FFFFFF;stroke:#000000;stroke-linecap:round;stroke-linejoin:round;stroke-miterlimit:10;" d="
					M318.154,403.66c0,0,27.921-5.463,32.281-2.048C354.8,405.027,325.609,406.204,318.154,403.66z"/>
				<path style="fill:#FFFFFF;stroke:#000000;stroke-linecap:round;stroke-linejoin:round;stroke-miterlimit:10;" d="
					M223.521,428.336c0,0,7.941-12.01,5.434-15.672C226.443,409.004,221.973,419.68,223.521,428.336z"/>
				<path style="fill:#FFFFFF;stroke:#000000;stroke-linecap:round;stroke-linejoin:round;stroke-miterlimit:10;" d="
					M230.061,424.13c0,0,29.678-5.722,32.127,0.085C264.64,430.02,241.116,426.236,230.061,424.13z"/>
				<path style="fill:#FFFFFF;stroke:#000000;stroke-linecap:round;stroke-linejoin:round;stroke-miterlimit:10;" d="
					M208.971,440.82c0,0,23.236-10.13,21.697-4.343C229.13,442.267,208.971,440.82,208.971,440.82z"/>
			</g>
			<g>
				<path d="M318.541,404.04c0,0-2.293-0.217-6.296-0.453c-1.001-0.062-2.108-0.131-3.315-0.205
					c-1.209-0.042-2.516-0.088-3.912-0.137c-1.396-0.048-2.882-0.1-4.448-0.154c-1.566-0.028-3.211,0.028-4.927,0.04
					c-1.716,0.022-3.504,0.045-5.353,0.068c-0.895,0.068-1.866,0.121-2.807,0.208c-0.941,0.108-1.894,0.195-2.864,0.323
					c-3.888,0.499-7.967,1.256-12.14,2.226c-8.336,1.952-17.13,4.641-25.387,8.468c-4.126,1.909-8.099,4.112-11.696,6.701
					c-1.823,1.338-3.656,2.644-5.422,3.973c-1.741,1.35-3.461,2.683-5.154,3.994c-6.717,5.399-12.987,10.438-18.361,14.757
					c-2.722,2.134-5.223,4.088-7.472,5.784c-2.286,1.655-4.248,3.137-5.92,4.291c-3.395,2.252-5.334,3.539-5.334,3.539
					c-0.74,0.491-1.739,0.289-2.23-0.451c-0.491-0.74-0.289-1.738,0.451-2.23c0.004-0.003,0.009-0.006,0.013-0.009l0.088-0.057
					c0,0,1.909-1.227,5.251-3.372c1.655-1.104,3.614-2.54,5.89-4.136c2.249-1.644,4.758-3.544,7.495-5.623
					c5.44-4.239,11.788-9.185,18.588-14.483c1.734-1.303,3.498-2.627,5.282-3.967c1.798-1.311,3.642-2.583,5.487-3.895
					c3.792-2.645,7.928-4.852,12.171-6.738c8.498-3.781,17.427-6.358,25.889-8.209c4.236-0.916,8.372-1.619,12.328-2.067
					c0.99-0.115,1.98-0.191,2.947-0.286c0.971-0.074,1.889-0.11,2.848-0.167c1.867,0.003,3.671,0.007,5.403,0.011
					c1.73,0.015,3.392-0.018,4.966,0.035c1.573,0.078,3.066,0.152,4.469,0.223c1.402,0.07,2.714,0.136,3.928,0.196
					c1.212,0.093,2.325,0.179,3.33,0.257c4.024,0.298,6.306,0.549,6.306,0.549l0.01,0.001c0.274,0.03,0.473,0.277,0.442,0.552
					C319.055,403.868,318.813,404.065,318.541,404.04z"/>
			</g>
		</g>
		<g>
			<path style="fill:#FFFFFF;stroke:#000000;stroke-linecap:round;stroke-linejoin:round;stroke-miterlimit:10;" d="M177.407,90.646
				c0,0-8.137-26.474-13.809-25.487C157.927,66.146,165.583,80.139,177.407,90.646z"/>
			<path style="fill:#FFFFFF;stroke:#000000;stroke-linecap:round;stroke-linejoin:round;stroke-miterlimit:10;" d="M184.79,104.575
				c0,0-22.807-19.763-23.609-14.454C160.378,95.43,184.79,104.575,184.79,104.575z"/>
			<g>
				<path d="M172.788,81.145c0,0,2.077,3.734,5.191,9.335c1.554,2.803,3.367,6.074,5.309,9.578
					c1.906,3.537,3.904,7.302,5.972,11.035c1.029,1.868,2.078,3.724,3.126,5.542c1.044,1.82,2.106,3.588,3.138,5.297
					c1.055,1.693,2.07,3.333,3.087,4.849c0.989,1.536,2.001,2.93,2.921,4.225c0.954,1.268,1.821,2.436,2.662,3.402
					c0.799,1.01,1.586,1.787,2.212,2.452c0.613,0.684,1.192,1.079,1.539,1.417c0.362,0.317,0.555,0.486,0.555,0.486l0.075,0.065
					c0.337,0.295,0.371,0.809,0.076,1.146c-0.295,0.337-0.808,0.371-1.145,0.076l-0.004-0.003c0,0-0.207-0.184-0.597-0.529
					c-0.369-0.361-1.005-0.818-1.636-1.534c-0.65-0.701-1.47-1.531-2.28-2.572c-0.86-1.007-1.734-2.206-2.694-3.508
					c-0.923-1.324-1.939-2.751-2.923-4.311c-1.015-1.543-2.022-3.205-3.069-4.921c-1.023-1.73-2.075-3.519-3.107-5.357
					c-1.037-1.835-2.073-3.708-3.088-5.591c-2.038-3.76-4.011-7.562-5.873-11.094c-1.909-3.52-3.691-6.805-5.218-9.62
					c-3.063-5.629-5.105-9.382-5.105-9.382c-0.132-0.243-0.042-0.546,0.2-0.678C172.353,80.817,172.654,80.905,172.788,81.145z"/>
			</g>
			<g>
				<path style="fill:#FFFFFF;stroke:#000000;stroke-linecap:round;stroke-linejoin:round;stroke-miterlimit:10;" d="
					M194.292,121.043c0,0,0.493-27.811-3.945-28.403C185.908,92.047,186.648,109.106,194.292,121.043z"/>
				<path style="fill:#FFFFFF;stroke:#000000;stroke-linecap:round;stroke-linejoin:round;stroke-miterlimit:10;" d="
					M180.236,95.792c0,0,4.438-22.325,0-22.31C175.799,73.499,178.757,91.455,180.236,95.792z"/>
			</g>
		</g>
		<g>
			<path style="fill:#FFFFFF;stroke:#000000;stroke-linecap:round;stroke-linejoin:round;stroke-miterlimit:10;" d="
				M193.673,275.147c0,0-22.032-16.78-19.148-21.761C177.408,248.404,187.897,260.423,193.673,275.147z"/>
			<path style="fill:#FFFFFF;stroke:#000000;stroke-linecap:round;stroke-linejoin:round;stroke-miterlimit:10;" d="
				M204.196,286.887c0,0-10.672-28.23-5.412-27.15C204.045,260.817,204.196,286.887,204.196,286.887z"/>
			<g>
				<path d="M187.108,266.875c0,0,2.817,3.213,7.042,8.031c2.115,2.405,4.583,5.212,7.226,8.22c2.672,2.967,5.559,6.131,8.383,9.343
					c1.417,1.602,2.817,3.222,4.181,4.828c1.368,1.603,2.684,3.209,3.954,4.767c1.249,1.575,2.461,3.095,3.558,4.58
					c1.124,1.462,2.113,2.908,3.037,4.231c0.891,1.352,1.713,2.585,2.362,3.74c0.698,1.119,1.193,2.176,1.627,3.027
					c0.454,0.839,0.663,1.595,0.874,2.065c0.189,0.484,0.29,0.743,0.29,0.743c0.163,0.418-0.043,0.889-0.46,1.052
					c-0.418,0.163-0.889-0.043-1.052-0.461l-0.002-0.004l-0.036-0.093c0,0-0.092-0.239-0.264-0.688
					c-0.197-0.442-0.368-1.123-0.798-1.935c-0.408-0.816-0.866-1.823-1.537-2.922c-0.616-1.123-1.412-2.341-2.273-3.674
					c-0.897-1.31-1.856-2.742-2.957-4.201c-1.071-1.477-2.26-2.996-3.485-4.571c-1.247-1.558-2.541-3.165-3.888-4.774
					c-1.343-1.611-2.723-3.236-4.121-4.848c-2.79-3.229-5.633-6.405-8.294-9.415c-2.618-3.033-5.061-5.864-7.155-8.291
					c-4.181-4.856-6.968-8.095-6.968-8.095c-0.18-0.21-0.157-0.525,0.053-0.705C186.614,266.647,186.927,266.669,187.108,266.875z"
					/>
			</g>
			<g>
				<path style="fill:#FFFFFF;stroke:#000000;stroke-linecap:round;stroke-linejoin:round;stroke-miterlimit:10;" d="
					M216.37,301.491c0,0-26.27-9.142-25.292-13.513C192.053,283.609,207.808,290.195,216.37,301.491z"/>
				<path style="fill:#FFFFFF;stroke:#000000;stroke-linecap:round;stroke-linejoin:round;stroke-miterlimit:10;" d="
					M197.526,279.579c0,0-22.483-3.544-20.937-7.703C178.138,267.716,193.967,276.693,197.526,279.579z"/>
			</g>
		</g>
		<g>
			<path style="fill:#FFFFFF;stroke:#000000;stroke-linecap:round;stroke-linejoin:round;stroke-miterlimit:10;" d="M90.037,151.17
				c0,0-32.477-8.497-31.572-15.416C59.368,128.835,76.707,137.39,90.037,151.17z"/>
			<path style="fill:#FFFFFF;stroke:#000000;stroke-linecap:round;stroke-linejoin:round;stroke-miterlimit:10;" d="
				M107.283,159.396c0,0-25.102-26.605-18.714-27.849C94.957,130.302,107.283,159.396,107.283,159.396z"/>
			<g>
				<path d="M78.788,145.071c0,0,4.647,2.284,11.618,5.711c3.487,1.708,7.555,3.701,11.913,5.837
					c4.374,2.078,9.075,4.275,13.73,6.554c2.332,1.134,4.651,2.294,6.925,3.456c2.276,1.157,4.495,2.341,6.64,3.492
					c2.129,1.181,4.191,2.316,6.109,3.467c1.938,1.112,3.713,2.269,5.361,3.319c1.623,1.096,3.116,2.091,4.375,3.08
					c1.299,0.926,2.34,1.873,3.219,2.622c0.448,0.362,0.817,0.729,1.126,1.064c0.315,0.327,0.584,0.605,0.802,0.83
					c0.435,0.451,0.667,0.692,0.667,0.692c0.312,0.323,0.302,0.837-0.021,1.148c-0.323,0.311-0.837,0.302-1.148-0.021l-0.003-0.002
					l-0.068-0.072c0,0-0.216-0.227-0.622-0.651c-0.203-0.213-0.452-0.475-0.746-0.783c-0.285-0.316-0.629-0.665-1.062-1.019
					c-0.841-0.726-1.828-1.643-3.095-2.56c-1.217-0.971-2.679-1.962-4.267-3.052c-1.619-1.048-3.362-2.203-5.276-3.321
					c-1.89-1.154-3.931-2.297-6.038-3.487c-2.125-1.161-4.323-2.355-6.582-3.525c-2.256-1.175-4.559-2.349-6.876-3.498
					c-4.63-2.309-9.295-4.533-13.676-6.655c-4.344-2.169-8.399-4.194-11.874-5.93c-6.945-3.479-11.575-5.799-11.575-5.799
					c-0.247-0.123-0.347-0.424-0.223-0.671C78.243,145.05,78.542,144.95,78.788,145.071z"/>
			</g>
			<g>
				<path style="fill:#FFFFFF;stroke:#000000;stroke-linecap:round;stroke-linejoin:round;stroke-miterlimit:10;" d="
					M127.713,170.059c0,0-33.652,2.023-34.598-3.321C92.17,161.393,112.867,161.414,127.713,170.059z"/>
				<path style="fill:#FFFFFF;stroke:#000000;stroke-linecap:round;stroke-linejoin:round;stroke-miterlimit:10;" d="
					M96.414,154.332c0,0-26.809,6.519-27.017,1.143S91.086,152.763,96.414,154.332z"/>
			</g>
		</g>
		<g>
			<path style="fill:#FFFFFF;stroke:#000000;stroke-linecap:round;stroke-linejoin:round;stroke-miterlimit:10;" d="
				M273.311,362.428c6.829-1.234,12.701-13.152,17.087-18.019c3.825-4.245,8.359-7.251,14.176-8.394
				c2.612-0.515,4.347-0.115,6.719,0.699c1.594,0.545,2.907,1.603,4.704,1.145c1.97-0.502,1.758-1.21,3.12-2.744
				c2.063-2.321,5.139-3.352,8.077-4.119c15.882-4.151,30.413,2.954,46.063,3.651c6.057,0.27,12.5,1.058,18.435-0.684
				c3.924-1.151,7.17-3.709,10.675-5.285c-2.434,5.65-9.104,12.122-14.097,15.54c-5.62,3.849-11.403,8.301-17.614,11.091
				c-5.993,2.693-12.325,5.003-18.676,6.376c-5.426,1.173-10.907,1.224-16.399,1.956c-0.099,3.984,3.419,6.547-1.44,9.242
				c-4.93,2.734-12.018,0.776-16.989-0.87c-6.323-2.094-12.419-4.666-18.746-6.709C290.612,362.789,281.474,361.787,273.311,362.428
				z"/>
			<g>
				<path style="fill:none;stroke:#000000;stroke-linecap:round;stroke-linejoin:round;stroke-miterlimit:10;" d="M274.521,362.349
					c0,0,3.618-4.049,38.998-8.895c35.379-4.846,72.701-4.988,88.847-24.775"/>
				<path style="fill:none;stroke:#000000;stroke-linecap:round;stroke-linejoin:round;stroke-miterlimit:10;" d="M277.358,360.881
					c0,0,17.541-3.444,36.846,1.034"/>
				<path style="fill:none;stroke:#000000;stroke-linecap:round;stroke-linejoin:round;stroke-miterlimit:10;" d="M281.929,359.372
					c0,0,23.549-7.601,41.325-15.186"/>
				<path style="fill:none;stroke:#000000;stroke-linecap:round;stroke-linejoin:round;stroke-miterlimit:10;" d="M293.604,356.671
					c0,0,22.076-0.665,43.499,1.308"/>
				<path style="fill:none;stroke:#000000;stroke-linecap:round;stroke-linejoin:round;stroke-miterlimit:10;" d="M312.169,353.641
					c0.548-0.268,26.801-11.27,45.547-13.905"/>
				<path style="fill:none;stroke:#000000;stroke-linecap:round;stroke-linejoin:round;stroke-miterlimit:10;" d="M320.808,352.518
					c0,0,8.404,3.476,26.828,1.691"/>
				<path style="fill:none;stroke:#000000;stroke-linecap:round;stroke-linejoin:round;stroke-miterlimit:10;" d="M283.802,358.759
					c0,0,17.055-10.88,27.561-15.38"/>
			</g>
		</g>
		<g>
			<path style="fill:#FFFFFF;stroke:#000000;stroke-linecap:round;stroke-linejoin:round;stroke-miterlimit:10;" d="
				M160.937,146.073c-3.406-6.045-16.59-7.686-22.625-10.234c-5.265-2.222-9.591-5.52-12.578-10.639
				c-1.343-2.3-1.534-4.07-1.543-6.579c-0.006-1.684,0.563-3.271-0.46-4.819c-1.12-1.694-1.721-1.261-3.616-2.046
				c-2.869-1.189-4.851-3.756-6.539-6.281c-9.13-13.643-7.182-29.701-11.653-44.713c-1.731-5.811-3.1-12.156-6.69-17.192
				c-2.374-3.33-5.854-5.558-8.493-8.351c6.136,0.446,14.438,4.627,19.304,8.222c5.479,4.046,11.58,8.051,16.252,13.003
				c4.51,4.779,8.769,10.004,12.146,15.553c2.888,4.741,4.733,9.903,7.226,14.853c3.797-1.214,5.064-5.376,9.204-1.669
				c4.199,3.76,4.674,11.099,4.749,16.334c0.095,6.662-0.338,13.263-0.193,19.911C155.604,129.609,157.654,138.572,160.937,146.073z
				"/>
			<g>
				<path style="fill:none;stroke:#000000;stroke-linecap:round;stroke-linejoin:round;stroke-miterlimit:10;" d="M160.465,144.957
					c0,0-5.012-2.09-21.19-33.926c-16.177-31.835-28.549-67.046-52.536-75.811"/>
				<path style="fill:none;stroke:#000000;stroke-linecap:round;stroke-linejoin:round;stroke-miterlimit:10;" d="M158.147,142.757
					c0,0-9.004-15.442-11.104-35.148"/>
				<path style="fill:none;stroke:#000000;stroke-linecap:round;stroke-linejoin:round;stroke-miterlimit:10;" d="M155.224,138.934
					c0,0-14.901-19.754-27.897-34.061"/>
				<path style="fill:none;stroke:#000000;stroke-linecap:round;stroke-linejoin:round;stroke-miterlimit:10;" d="M148.844,128.79
					c0,0-7.867-20.638-13.026-41.522"/>
				<path style="fill:none;stroke:#000000;stroke-linecap:round;stroke-linejoin:round;stroke-miterlimit:10;" d="M139.894,112.244
					c-0.432-0.43-19.434-21.623-28.069-38.47"/>
				<path style="fill:none;stroke:#000000;stroke-linecap:round;stroke-linejoin:round;stroke-miterlimit:10;" d="M136,104.452
					c0,0,0.528-9.079-7.198-25.901"/>
				<path style="fill:none;stroke:#000000;stroke-linecap:round;stroke-linejoin:round;stroke-miterlimit:10;" d="M154.031,137.366
					c0,0-15.871-12.545-23.567-20.995"/>
			</g>
		</g>
		<g>
			<path style="fill:#FFFFFF;stroke:#000000;stroke-linecap:round;stroke-linejoin:round;stroke-miterlimit:10;" d="M281.216,227.79
				c1.465-1.837,0.485-7.896,1.02-10.214c1.026-4.45,2.834-8.994,3.176-13.574c0.143-1.909-0.145-3.627,0.178-5.546
				c0.327-1.962,0.345-3.76,0.401-5.732c0.098-3.455,0.956-6.89,1.25-10.326c0.427-5.002,1.041-9.901,3.372-14.443
				c2.021-3.937,4.25-5.661,7.978-7.649c-1.899-3.95,1.45-10.171,2.596-13.927c1.643-5.394,4.729-10.731,8.536-14.884
				c3.845-4.192,7.748-8.276,11.871-12.266c3.558-3.444,5.837-7.691,8.433-11.84c-0.938,0.688-1.284,2.982-1.422,4.139
				c-0.327,2.753-0.485,5.72-0.642,8.489c-0.17,2.964,0.976,5.707,1.435,8.618c0.523,3.326,1.025,6.438,1.736,9.732
				c1.871,8.667,4.084,16.761,0.398,25.175c-0.974,2.226-3.084,3.402-2.63,5.886c0.726,3.97,1.46,7.102,0.469,11.256
				c-2.685,11.248-10.328,21.174-19.67,27.85c-4.48,3.202-8.294,7.326-12.956,10.261c-2.141,1.347-4.313,2.633-6.506,3.866
				C288.521,223.626,283.178,227.549,281.216,227.79z"/>
			<g>
				<path style="fill:none;stroke:#000000;stroke-linecap:round;stroke-linejoin:round;stroke-miterlimit:10;" d="M281.216,227.79
					c0,0,8.793-5.032,18.436-30.493c9.643-25.46,15.133-62.4,27.507-80.145"/>
				<path style="fill:none;stroke:#000000;stroke-linecap:round;stroke-linejoin:round;stroke-miterlimit:10;" d="M286.066,223.044
					c0,0,27.723-31.112,35.673-58.574"/>
				<path style="fill:none;stroke:#000000;stroke-linecap:round;stroke-linejoin:round;stroke-miterlimit:10;" d="M293.642,211.014
					c0,0,27.181-56.09,33.776-64.12"/>
				<path style="fill:none;stroke:#000000;stroke-linecap:round;stroke-linejoin:round;stroke-miterlimit:10;" d="M306.409,176.063
					c0,0,2.133-32.315,6.197-42.12"/>
				<path style="fill:none;stroke:#000000;stroke-linecap:round;stroke-linejoin:round;stroke-miterlimit:10;" d="M301.635,191.74
					c0,0,0.09-22.328-2.09-30.575"/>
				<path style="fill:none;stroke:#000000;stroke-linecap:round;stroke-linejoin:round;stroke-miterlimit:10;" d="M294.339,209.579
					c0,0-2.32-16.668-3.023-29.145"/>
			</g>
		</g>
		<g>
			<path style="fill:#FFFFFF;stroke:#000000;stroke-linecap:round;stroke-linejoin:round;stroke-miterlimit:10;" d="
				M234.516,228.898c0,0-5.74-30.404-4.532-58.621c1.209-28.217,16.315-54.486,10.272-78.06c0,0,24.779,32.416,26.89,69.779
				C269.255,199.359,255.664,216.337,234.516,228.898z"/>
			<g>
				<path style="fill:none;stroke:#000000;stroke-linecap:round;stroke-linejoin:round;stroke-miterlimit:10;" d="M234.516,228.898
					c0,0,13.232-28.564,14.968-63.824c1.735-35.26-2.155-55.119-2.155-55.119"/>
				<path style="fill:none;stroke:#000000;stroke-linecap:round;stroke-linejoin:round;stroke-miterlimit:10;" d="M239.947,214.616
					c0,0,7.801-7.173,15.127-26.708"/>
				<path style="fill:none;stroke:#000000;stroke-linecap:round;stroke-linejoin:round;stroke-miterlimit:10;" d="M244.751,197.635
					c0,0,16.686-28.49,16.686-51.626"/>
				<path style="fill:none;stroke:#000000;stroke-linecap:round;stroke-linejoin:round;stroke-miterlimit:10;" d="M249.008,171.821
					c0,0,8.573-29.469,7.031-44.029"/>
				<path style="fill:none;stroke:#000000;stroke-linecap:round;stroke-linejoin:round;stroke-miterlimit:10;" d="M242.223,131.548
					c0,0,3.17,16.782,7.529,26.899"/>
				<path style="fill:none;stroke:#000000;stroke-linecap:round;stroke-linejoin:round;stroke-miterlimit:10;" d="M236.951,147.548
					c0,0.774,3.381,19.446,10.56,36.331"/>
				<path style="fill:none;stroke:#000000;stroke-linecap:round;stroke-linejoin:round;stroke-miterlimit:10;" d="M235.987,163.631
					c0,1.271-1.012,29.659,6.235,44.825"/>
			</g>
		</g>
		<g>
			<path style="fill:#FFFFFF;stroke:#000000;stroke-linecap:round;stroke-linejoin:round;stroke-miterlimit:10;" d="
				M329.583,259.362c0,0,28.694-11.574,51.797-27.82c23.104-16.246,37.067-43.139,60.174-50.774c0,0-40.663-3.367-73.257,15.019
				C335.703,214.173,328.744,234.777,329.583,259.362z"/>
			<g>
				<path style="fill:none;stroke:#000000;stroke-linecap:round;stroke-linejoin:round;stroke-miterlimit:10;" d="M329.583,259.362
					c0,0,16.906-26.558,45.655-47.046c28.748-20.49,47.566-27.93,47.566-27.93"/>
				<path style="fill:none;stroke:#000000;stroke-linecap:round;stroke-linejoin:round;stroke-miterlimit:10;" d="M338.676,247.082
					c0,0,1.829-10.441,14.319-27.149"/>
				<path style="fill:none;stroke:#000000;stroke-linecap:round;stroke-linejoin:round;stroke-miterlimit:10;" d="M350.379,233.874
					c0,0,14.981-29.425,34.458-41.91"/>
				<path style="fill:none;stroke:#000000;stroke-linecap:round;stroke-linejoin:round;stroke-miterlimit:10;" d="M369.813,216.359
					c0,0,20.182-23.121,33.274-29.68"/>
				<path style="fill:none;stroke:#000000;stroke-linecap:round;stroke-linejoin:round;stroke-miterlimit:10;" d="M407.381,200.338
					c0,0-15.838,6.387-26.709,8.177"/>
				<path style="fill:none;stroke:#000000;stroke-linecap:round;stroke-linejoin:round;stroke-miterlimit:10;" d="M396.755,213.41
					c-0.65,0.417-18.196,7.649-36.286,10.717"/>
				<path style="fill:none;stroke:#000000;stroke-linecap:round;stroke-linejoin:round;stroke-miterlimit:10;" d="M383.735,222.902
					c-1.07,0.686-24.424,16.857-41.103,18.94"/>
			</g>
		</g>
		<g>
			<path style="fill:#FFFFFF;stroke:#000000;stroke-linecap:round;stroke-linejoin:round;stroke-miterlimit:10;" d="
				M189.117,457.431c7.407,5.287,20.293,9.833,30.542,5.818c6.296-2.466,10.778-5.92,15.52-10.717
				c5.798-5.87,11.797-11.195,20.23-12.39c0,0-11.298,0.209-24.813-1.588C217.087,436.757,197.013,442.175,189.117,457.431z"/>
			<g>
				<path style="fill:none;stroke:#000000;stroke-linecap:round;stroke-linejoin:round;stroke-miterlimit:10;" d="M243.762,442.212
					c0,0-27.969,0.785-54.645,15.219"/>
				<path style="fill:none;stroke:#000000;stroke-linecap:round;stroke-linejoin:round;stroke-miterlimit:10;" d="M229.813,451.864
					c0,0-13.001-5.302-21.021-2.861"/>
				<path style="fill:none;stroke:#000000;stroke-linecap:round;stroke-linejoin:round;stroke-miterlimit:10;" d="M234.981,448.06
					c0,0-11.463-2.699-19.537-1.072"/>
				<path style="fill:none;stroke:#000000;stroke-linecap:round;stroke-linejoin:round;stroke-miterlimit:10;" d="M207.19,449.546
					c0,0,12.563-7.834,19.291-9.25"/>
				<path style="fill:none;stroke:#000000;stroke-linecap:round;stroke-linejoin:round;stroke-miterlimit:10;" d="M200.417,452.095
					c0,0,5.326-5.121,15.145-10.686"/>
				<path style="fill:none;stroke:#000000;stroke-linecap:round;stroke-linejoin:round;stroke-miterlimit:10;" d="M221.521,457.453
					c0,0-19.057-6.864-27.846-2.356"/>
			</g>
		</g>
		<g>
			<g>
				<path style="fill:#FFFFFF;stroke:#000000;stroke-linecap:round;stroke-linejoin:round;stroke-miterlimit:10;" d="
					M216.979,217.77c0,0,9.105,7.213,13.033,6.383c3.928-0.831-6.976-12.971-6.976-12.971S217.842,213.276,216.979,217.77z"/>
				<g>
					<path style="fill:none;stroke:#000000;stroke-linecap:round;stroke-linejoin:round;stroke-miterlimit:10;" d="M217.896,215.18
						c0.944-0.038,1.561,0.507,2.311,0.997c1.28,0.839,2.627,1.506,3.835,2.456c0.775,0.61,1.504,1.165,2.131,1.931
						c0.403,0.494,0.835,0.978,1.256,1.452c0.667,0.754,1.668,1.883,2.73,2.008"/>
					<path style="fill:none;stroke:#000000;stroke-linecap:round;stroke-linejoin:round;stroke-miterlimit:10;" d="M220.202,212.72
						c0.888,0.004,1.76,0.657,2.492,1.125c0.967,0.616,1.98,1.521,2.66,2.448c0.889,1.211,1.904,2.324,2.777,3.545
						c0.525,0.735,1.097,1.489,1.711,2.145c0.381,0.406,0.268,0.549,0.676,0.929"/>
				</g>
			</g>
			<path style="fill:#FFFFFF;stroke:#000000;stroke-linecap:round;stroke-linejoin:round;stroke-miterlimit:10;" d="
				M178.605,150.261c-2.035-3.78-3.486-10.057-0.904-14.116c0.978-1.536,2.964-2.025,4.129-3.281
				c1.792-1.932,1.28-2.746,1.612-5.175c0.711-5.205,2.469-4.208,6.771-5.159c4.206-0.93,1.66-5.358,5.087-7.054
				c2.788,7.557,11.048,2.357,16.188,2.863c3.101,0.305,5.233,3.282,8.392,3.231c2.616-0.042,6.17-2.742,8.795-1.062
				c4.595,2.94,2.407,13.057,2.169,17.5c-0.331,6.181,1.165,12.829,3.789,18.381c5.362,11.347,3.986,21.37-1.773,32.326
				c-2.395,4.552-5.054,8.944-7.901,13.141c-2.567,3.783-6.325,8.062-7.98,12.253c0,0-13.544-7.094-19.993-27.087
				S183.121,158.645,178.605,150.261z"/>
			<g>
				<path style="fill:none;stroke:#000000;stroke-linecap:round;stroke-linejoin:round;stroke-miterlimit:10;" d="M231.426,126.028
					c0.367,4.683-2.522,12.746-6.224,15.191c-1.517,1.002-2.37,1.683-1.725,3.676c0.679,2.099,1.356,2.703-0.572,4.182
					c-1.727,1.324-3.247,2.465-3.572,4.808c-0.463,3.337,0.878,4.288,2.794,6.639c4.14,5.079,5.057,13.786,5.414,20.089
					c0.274,4.831,0.102,9.654-0.906,14.327c-0.447,2.072-1.433,4.383-1.467,6.463"/>
				<path style="fill:none;stroke:#000000;stroke-linecap:round;stroke-linejoin:round;stroke-miterlimit:10;" d="M195.092,115.683
					c-0.76,4.397-0.942,8.841,0.443,13.201c0.805,2.536,2.265,4.705,3.433,7.072c1.357,2.751,2.539,5.495,4.064,8.15
					c6.061,10.553,5.739,22.287,7.131,33.95c0.963,8.067,1.597,16.137,3.313,24.066c0.666,3.08,1.062,6.861,2.858,9.475
					c0.337,0.491,0.744,1.005,1.165,1.386"/>
				<path style="fill:none;stroke:#000000;stroke-linecap:round;stroke-linejoin:round;stroke-miterlimit:10;" d="M212.895,118.661
					c2.252,2.839,3.379,7.222,3.4,9.471c0.046,4.642-0.404,9.016-0.9,13.609c-1.04,9.629,2.175,18.342,4.368,27.544
					c1.727,7.249,5.264,14.173,5.255,21.783c-0.003,2.694-0.133,5.252-0.15,7.929"/>
				<path style="fill:none;stroke:#000000;stroke-linecap:round;stroke-linejoin:round;stroke-miterlimit:10;" d="M183.511,129.218
					c-0.001,3.336,0.76,6.55,1.651,9.776c1.094,3.958,2.905,8.719,5.106,12.177c5.294,8.316,10.921,15.823,13.236,25.576
					c1.533,6.462,1.728,13.075,3.735,19.43c1.086,3.439,3.104,7.024,5.295,9.888"/>
			</g>
			<g>
				<path style="fill:#FFFFFF;stroke:#000000;stroke-linecap:round;stroke-linejoin:round;stroke-miterlimit:10;" d="
					M195.323,202.452c-6.591-3.479-10.909-10.29-17.091-14.438c-5.51-3.697-11.241-7.069-16.775-10.696
					c-9.042-5.926-16.208-13.057-27.401-14.599c-6.947-0.957-17.778,0.024-20.575,8.132c-1.856,5.382,2.441,11.077,0.009,15.88
					c-1.016,2.004-5.025,3.972-5.488,5.796c-0.598,2.356,2.248,4.083,1.948,7.023c-0.285,2.808-1.727,5.563,0.323,8.053
					c1.892,2.297,5.452,0.932,7.375,2.91c-0.592,0.572-2.584,1.607-2.874,2.329c-1.032,2.563,0.773,1.355,1.868,2.91
					c1.201,1.706,1.115,0.646,0.726,2.831c-0.223,1.243-1.185,2.447-1.369,3.86c-0.977,7.528,5.075,6.527,9.343,10.231
					c2.524,2.19,4.088,4.874,5.087,8.133c0.927,3.022,0.848,6.956,5.238,6.151c3.056-0.561,4.25-4.924,7.74-4.852
					c3.145,0.063,3.784,3.284,7.023,0.651c3.841-3.125,6.294-7.706,10.139-10.877c4.076-3.358,8.186-8.027,11.465-12.34
					c7.011-9.225,16.554-5.802,26.515-5.159c9.996,0.645,19.348-3.547,19.348-3.547S206.932,208.579,195.323,202.452z"/>
				<g>
					<path style="fill:none;stroke:#000000;stroke-linecap:round;stroke-linejoin:round;stroke-miterlimit:10;" d="M141.953,241.953
						c7.264-3.511,11.441-9.671,17.036-15.265c5.41-5.411,11.323-12.528,19.219-14.193"/>
					<path style="fill:none;stroke:#000000;stroke-linecap:round;stroke-linejoin:round;stroke-miterlimit:10;" d="M122.616,230.926
						c1.555,0.551,5.672-1.761,7.101-2.524c3.402-1.815,5.974-4.031,8.753-6.65c5.036-4.744,9.38-10.647,15.901-13.482
						c5.918-2.574,12.387-2.936,18.701-3.747c2.625-0.337,5.505-0.584,8.146-0.229c3.256,0.437,6.701,1.681,9.98,1.706"/>
					<path style="fill:none;stroke:#000000;stroke-linecap:round;stroke-linejoin:round;stroke-miterlimit:10;" d="M128.659,237.119
						c0.35-1.698,2.227-3.241,3.475-4.566c2.006-2.128,4.121-4.253,6.345-6.158c4.79-4.106,9.195-8.634,13.898-12.808
						c3.45-3.063,7.976-5.192,12.394-6.261c1.535-0.372,3.067-0.677,4.624-0.907c2.78-0.409,5.768-1.587,8.511-1.779"/>
					<path style="fill:none;stroke:#000000;stroke-linecap:round;stroke-linejoin:round;stroke-miterlimit:10;" d="M117.481,210.532
						c2.126-0.466,4.288-1.651,6.344-2.383c2.645-0.942,5.325-1.718,7.995-2.602c5.3-1.754,11.195-3.189,16.775-3.441
						c4.634-0.21,9.012,0.654,13.566,1.183c2.645,0.308,5.845,1.396,8.492,1.2"/>
					<path style="fill:none;stroke:#000000;stroke-linecap:round;stroke-linejoin:round;stroke-miterlimit:10;" d="M117.783,216.725
						c6.281-3.347,13.33-4.857,19.671-8.005c5.577-2.769,10.639-4.684,16.886-4.684"/>
					<path style="fill:none;stroke:#000000;stroke-linecap:round;stroke-linejoin:round;stroke-miterlimit:10;" d="M114.006,184.549
						c5.735,1.122,11.557,0.385,17.373,0.143c7.295-0.303,14.36,1.506,21.155,3.968c5.337,1.934,10.32,4.309,14.944,7.633
						c2.858,2.055,6.382,5.565,9.823,6.382"/>
					<path style="fill:none;stroke:#000000;stroke-linecap:round;stroke-linejoin:round;stroke-miterlimit:10;" d="M113.704,169.292
						c4.811-0.019,9.066,0.326,13.732,1.662c2.981,0.853,6.018,1.397,8.89,2.564c2.954,1.201,5.707,2.761,8.61,4.044
						c4.714,2.085,8.852,5.352,13.323,7.889c3.557,2.019,7.149,4.027,10.582,6.198"/>
				</g>
			</g>
			<path style="fill:#FFFFFF;stroke:#000000;stroke-linecap:round;stroke-linejoin:round;stroke-miterlimit:10;" d="
				M190.433,199.152c-5.066-5.59-11.58-11.491-19.026-13.592c-7.159-2.021-14.406-1.235-21.649-0.184
				c-4.452,0.646-14.125,1.306-16.697-3.634c-2.842-5.456,2.896-8.748,3.452-13.595c0.246-2.149-0.691-3.897-1.979-5.53
				c-1.423-1.803-2.504-3.817-3.467-5.91c-1.755-3.813-2.074-10.949,2.418-13.111c2.424-1.167,4.936,0.146,7.429,0.117
				c3.293-0.039,6.475-3.398,9.04-5.253c2.844-2.056,5.843-4.352,9.061-5.774c2.936-1.297,4.36-0.071,4.951,3.054
				c1.008,5.337,3.269,9.242,7.927,12.203c3.501,2.225,7.843,3.572,11.782,4.948c5.22,1.824,9.719,3.284,13.669,7.473
				c2.667,2.831,4.842,5.426,6.083,9.181c1.274,3.859,1.285,7.088,0.641,11.061c-0.589,3.635-1.736,6.919-2.793,10.386
				c-0.602,1.974-1.033,4.219-0.416,6.197L190.433,199.152z"/>
			<g>
				<path style="fill:none;stroke:#000000;stroke-linecap:round;stroke-linejoin:round;stroke-miterlimit:10;" d="M160.522,132.173
					c2.733,1.41,2.495,6.184,1.775,10.292c-0.858,4.901-0.484,10.459,3.78,13.789c4.41,3.442,12.125,1.279,17.406,1.504
					c3.624,0.154,8.019,1.147,11.179,3.059c4.022,2.433,8.161,6.341,9.517,10.842"/>
				<path style="fill:none;stroke:#000000;stroke-linecap:round;stroke-linejoin:round;stroke-miterlimit:10;" d="M143.906,143.107
					c6.383,2.575,11.505,8.33,16.167,13.331c5.657,6.068,9.195,13.559,15.266,19.265c3.748,3.523,6.107,7.935,9.505,11.665
					c1.292,1.417,2.578,2.919,3.892,4.272c1.467,1.511,2.403,2.965,3.662,4.642"/>
				<path style="fill:none;stroke:#000000;stroke-linecap:round;stroke-linejoin:round;stroke-miterlimit:10;" d="M179.406,158.214
					c4.578,3.729,8.141,9.136,11.639,13.905c3.587,4.892,6.013,10.537,7.395,16.458"/>
				<path style="fill:none;stroke:#000000;stroke-linecap:round;stroke-linejoin:round;stroke-miterlimit:10;" d="M188.167,158.516
					c0.995,1.465,2.705,2.208,3.766,3.676c1.523,2.108,2.893,4.676,3.942,7.05c1.641,3.713,3.412,7.609,4.075,11.632"/>
				<path style="fill:none;stroke:#000000;stroke-linecap:round;stroke-linejoin:round;stroke-miterlimit:10;" d="M136.353,165.767
					c0.857,0.166,0.698,0.692,1.207,1.239c1.183,1.274,2.462,2.314,3.936,3.296c3.55,2.361,7.875,3.535,11.613,5.619
					c6.326,3.528,16.628,7.822,21.932,10.989"/>
			</g>
			<path style="fill:#FFFFFF;stroke:#000000;stroke-linecap:round;stroke-linejoin:round;stroke-miterlimit:10;" d="
				M193.908,199.303c-1.902-3.402-2.319-6.116,1.352-8.754c1.524-1.096,3.008-2.283,3.33-4.23c0.283-1.698-0.383-3.626,0.035-5.295
				c0.702-2.8,3.945-4.559,4.505-7.516c0.717-3.787-2.231-8.073-0.647-11.522c0.65-1.417,2.257-2.361,2.952-3.807
				c1.012-2.108,0.561-4.181-0.046-6.307c-0.691-2.424-1.898-6.072-1.518-8.613c0.443-2.966,3.633-2.975,6.051-2.72
				c0,0-1.964,3.928,0.755,7.704c2.72,3.776,1.859,8.006,1.859,8.006s9.472,4.985,10.075,28.853
				C223.214,208.971,201.764,213.352,193.908,199.303z"/>
			<g>
				<path style="fill:none;stroke:#000000;stroke-linecap:round;stroke-linejoin:round;stroke-miterlimit:10;" d="M212.535,156.25
					c-0.919,2.437-3.803,3.332-4.993,4.826c-2.223,2.79-2.533,6.069-1.885,9.407c0.664,3.417-0.498,5.068-2.954,7.218
					c-1.786,1.564-3.344,3.368-3.777,5.623c-0.135,0.7-0.21,1.341-0.185,2.081"/>
				<path style="fill:none;stroke:#000000;stroke-linecap:round;stroke-linejoin:round;stroke-miterlimit:10;" d="M202.367,178.003
					c0.457,1.494,0.429,3.145,0.907,4.713c0.6,1.962,1.342,3.702,2.446,5.442c2.345,3.692,5.785,5.422,8.883,8.274"/>
				<path style="fill:none;stroke:#000000;stroke-linecap:round;stroke-linejoin:round;stroke-miterlimit:10;" d="M198.166,187.85
					c1.228,3.854,3.422,7.027,6.798,9.365"/>
				<path style="fill:none;stroke:#000000;stroke-linecap:round;stroke-linejoin:round;stroke-miterlimit:10;" d="M201.97,178.56
					c0,2.262,0.358,4.365,1.176,6.486c0.86,2.232,1.35,4.561,2.23,6.796"/>
				<path style="fill:none;stroke:#000000;stroke-linecap:round;stroke-linejoin:round;stroke-miterlimit:10;" d="M206.261,163.78
					c1.429,3.322,4.462,6.014,7.9,7.083"/>
				<path style="fill:none;stroke:#000000;stroke-linecap:round;stroke-linejoin:round;stroke-miterlimit:10;" d="M206.67,162.213
					c0.995,2.75,4.221,5.018,6.947,5.721"/>
			</g>
			<path style="fill:#FFFFFF;stroke:#000000;stroke-linecap:round;stroke-linejoin:round;stroke-miterlimit:10;" d="
				M157.262,241.855c-1.243,0.392,0.303-3.49,0.419-5.02c0.172-2.24-0.163-4.41-0.271-6.608c-0.226-4.587-0.03-7.809,3.327-11.175
				c1.256-1.258,2.674-2.496,4.268-3.293c1.179-0.59,2.738-0.677,3.436-1.851c0.659-1.107,0.301-2.748,0.634-3.961
				c0.51-1.854,1.908-3.813,3.109-5.261c1.548-1.865,3.603-4.408,5.732-5.597c2.115-1.181,5.068-1.285,7.406-1.911
				c3.159-0.845,6.239-1.932,9.411-2.761c2.91-0.761,6.005-1.352,8.487-3.018c5.211-3.497,10.202-7.184,14.584-11.745
				c3.106-3.232,4.73-7.061,9.098-8.758c4.306-1.673,7.371-1.087,10.121,2.376c0,0-11.913,2.417-10.573,13.444
				c1.04,8.566,1.873,20.545-7.447,29.458c-9.321,8.913-18.234,9.366-31.226,8.384c-12.991-0.982-16.919-1.134-20.092,4.456
				C164.513,234.605,160.131,240.948,157.262,241.855z"/>
			<g>
				<path style="fill:none;stroke:#000000;stroke-linecap:round;stroke-linejoin:round;stroke-miterlimit:10;" d="M167.471,214.861
					c2.159-1.13,4.99-1.195,7.295-2.077c2.473-0.946,4.203-1.638,6.901-1.128c2.928,0.553,6.004,1.161,8.766,2.299
					c2.302,0.949,5.098,3.925,7.704,3.625"/>
				<path style="fill:none;stroke:#000000;stroke-linecap:round;stroke-linejoin:round;stroke-miterlimit:10;" d="M175.351,201.238
					c1.919-1.248,6.58-0.253,8.755,0.182c2.099,0.419,4.145,1.039,6.2,1.632c1.62,0.468,5.008,0.89,5.892,2.417"/>
				<path style="fill:none;stroke:#000000;stroke-linecap:round;stroke-linejoin:round;stroke-miterlimit:10;" d="M180.059,198.339
					c1.005,0.56,2.368,0.677,3.503,0.797c2.194,0.232,3.921,0.407,6.014,1.166"/>
				<path style="fill:none;stroke:#000000;stroke-linecap:round;stroke-linejoin:round;stroke-miterlimit:10;" d="M224.995,171.89
					c-2.955,1.789-4.366,5.921-4.876,9.397c-0.636,4.344,0.953,8.997-0.109,13.262"/>
				<path style="fill:none;stroke:#000000;stroke-linecap:round;stroke-linejoin:round;stroke-miterlimit:10;" d="M217.804,179.655
					c0.014,2.89-0.806,11.585-1.991,14.361"/>
				<path style="fill:none;stroke:#000000;stroke-linecap:round;stroke-linejoin:round;stroke-miterlimit:10;" d="M232.699,170.246
					c-5.045-0.39-9.38,6.203-10.273,10.574"/>
				<path style="fill:none;stroke:#000000;stroke-linecap:round;stroke-linejoin:round;stroke-miterlimit:10;" d="M158.106,232.839
					c2.367-0.649,3.846-6.464,5.178-8.728c1.966-3.342,6.145-5.681,9.626-7.133"/>
			</g>
		</g>
		<g>
			<g>
				<path style="fill:#FFFFFF;stroke:#000000;stroke-linecap:round;stroke-linejoin:round;stroke-miterlimit:10;" d="
					M277.424,274.386c-0.649,2.335-0.597,5.012-0.811,7.419c-0.177,1.984-0.333,4.277,0.128,6.236
					c0.238,1.015,1.003,2.464,1.98,2.964c0.98,0.501,2.831,0.148,3.844-0.095c2.882-0.693,5.546-2.438,7.838-4.29
					c1.112-0.898,2.232-1.781,3.332-2.696c1.074-0.894,3.147-1.808,3.855-2.816L277.424,274.386z"/>
				<g>
					<path style="fill:none;stroke:#000000;stroke-linecap:round;stroke-linejoin:round;stroke-miterlimit:10;" d="M280.446,287.83
						c2.281-3.186,4.459-7.068,7.628-9.442"/>
					<path style="fill:none;stroke:#000000;stroke-linecap:round;stroke-linejoin:round;stroke-miterlimit:10;" d="M282.712,287.452
						c0.636-1.313,1.767-2.469,2.642-3.619c1.109-1.46,2.213-2.929,3.326-4.387"/>
					<path style="fill:none;stroke:#000000;stroke-linecap:round;stroke-linejoin:round;stroke-miterlimit:10;" d="M285.657,286.471
						c1.786-2.254,3.859-4.82,4.608-7.63"/>
					<path style="fill:none;stroke:#000000;stroke-linecap:round;stroke-linejoin:round;stroke-miterlimit:10;" d="M279.615,285.412
						c1.18-1.551,2.145-3.287,3.323-4.833"/>
				</g>
			</g>
			<g>
				<path style="fill:#FFFFFF;stroke:#000000;stroke-linecap:round;stroke-linejoin:round;stroke-miterlimit:10;" d="
					M297.223,252.655c0.516-2.057,0.311-4.813,0.311-6.905c0-2.778,0.172-5.608-0.194-8.361c-0.891-6.71-1.973-13.082-4.685-19.371
					c-2.974-6.896-8.012-13.775-14.949-16.777c-2.929-1.267-6.373-2.845-9.568-1.834c-2.385,0.755-3.914,2.859-6.013,4.066
					c-3.261,1.877-5.643-1.512-8.946-0.792c-3.242,0.706-5.077,5.339-5.722,8.245c-0.329,1.479-0.601,3.365-1.281,4.723
					c-0.907,1.811-2.659,2.266-4.238,3.318c-2.752,1.834-4.018,3.874-3.893,7.144c0.158,4.133,2.534,7.852,2.506,12.058
					c-0.017,2.472,0.457,5.165,2.172,7.139c1.848,2.129,5.958,5.218,8.282,6.879c4.372,3.123,9.524,14.364,13.271,22.328
					c3.748,7.964,12.335,14.521,24.826,2.03C301.596,264.054,295.975,257.651,297.223,252.655z"/>
				<g>
					<path style="fill:none;stroke:#000000;stroke-linecap:round;stroke-linejoin:round;stroke-miterlimit:10;" d="M240.6,239.502
						c0,0,5.252,6.595,15.559,11.592c10.305,4.996,10.961,7.495,11.648,14.833c0.686,7.339,5.67,17.899,10.673,17.303"/>
					<path style="fill:none;stroke:#000000;stroke-linecap:round;stroke-linejoin:round;stroke-miterlimit:10;" d="M244.94,217.145
						c0,0-4.397,8.654,8.563,18.959c12.96,10.306,16.238,13.544,18.268,25.275c2.03,11.73,9.76,20.786,9.76,20.786"/>
					<path style="fill:none;stroke:#000000;stroke-linecap:round;stroke-linejoin:round;stroke-miterlimit:10;" d="M260.194,204.043
						c0,0,11.422,21.067,15.325,37.26s6.79,38.56,8.704,39.321"/>
					<path style="fill:none;stroke:#000000;stroke-linecap:round;stroke-linejoin:round;stroke-miterlimit:10;" d="M263.425,202.58
						c0,0,10.376,19.159,13.656,33.211c3.278,14.054,4.076,35.753,5.629,41.064"/>
				</g>
			</g>
			<g>
				<path style="fill:#FFFFFF;stroke:#000000;stroke-linecap:round;stroke-linejoin:round;stroke-miterlimit:10;" d="
					M326.11,267.333c4.524-1.412,8.414-5.408,12.064-8.311c3.349-2.661,6.337-5.597,8.24-9.524
					c2.273-4.684,2.189-11.106-0.933-15.422c-1.609-2.226-4.164-3.179-6.577-4.178c-1.912-0.791-1.889-1.02-1.706-3.006
					c0.201-2.199,0.584-5.225-0.777-7.191c-1.586-2.293-4.971-0.599-6.576-2.369c-1.22-1.345-0.551-3.494-2.286-4.805
					c-2.496-1.886-5.866-1.583-8.68-0.742c-2.705,0.809-4.273,1.885-7.178,1.332c-1.199-0.229-2.457-0.586-3.515-1.215
					c-1.032-0.614-1.825-1.733-3.2-1.413c-2.816,0.656-5.279,6.155-6.428,8.494c-2.748,5.587-4.461,11.086-5.709,17.12
					c-3.904,18.893-13.43,36.382-3.748,40.441C298.784,280.604,311.589,271.86,326.11,267.333z"/>
				<g>
					<path style="fill:none;stroke:#000000;stroke-linecap:round;stroke-linejoin:round;stroke-miterlimit:10;" d="M288.322,273.734
						c2.039-9.23,4.774-18.406,8.752-27.057c1.875-4.077,3.907-8.197,5.465-12.409c0.93-2.509,1.561-5.044,2.616-7.503
						c2.006-4.675,6.417-10.477,10.181-13.797"/>
					<path style="fill:none;stroke:#000000;stroke-linecap:round;stroke-linejoin:round;stroke-miterlimit:10;" d="M330.014,217.523
						c0.24,0.977-1.314,3.626-1.862,4.715c-1.48,2.933-3.313,5.815-5.474,8.283c-4.223,4.822-7.978,9.985-12.022,14.951
						c-3.296,4.045-6.518,8.148-10.032,12.024c-2.901,3.199-5.757,6.29-7.46,10.306"/>
					<path style="fill:none;stroke:#000000;stroke-linecap:round;stroke-linejoin:round;stroke-miterlimit:10;" d="M293.476,270.767
						c3.063-1.768,5.884-5.354,8.424-7.81c2.883-2.787,6.143-5.571,9.385-7.93c5.661-4.12,10.235-9.715,15.129-14.674
						c3.962-4.011,8.155-8.222,10.782-13.15"/>
					<path style="fill:none;stroke:#000000;stroke-linecap:round;stroke-linejoin:round;stroke-miterlimit:10;" d="M338.445,229.702
						c-0.346,2.734-2.749,6.034-4.062,8.427c-2.07,3.777-4.717,6.878-7.532,10.116c-3.106,3.571-6.317,7.143-9.956,10.179
						c-2.101,1.755-4.27,3.178-6.522,4.728c-2.255,1.551-5.439,2.881-7.217,4.962"/>
					<path style="fill:none;stroke:#000000;stroke-linecap:round;stroke-linejoin:round;stroke-miterlimit:10;" d="M300.189,272.485
						c4.291-2.723,8.397-5.253,13.12-7.222c3.413-1.424,6.997-3.714,10.115-5.708c3.193-2.041,6.343-3.649,9.251-6.128
						c2.043-1.741,3.355-3.771,5.027-5.809c2.212-2.695,3.729-6.164,5.427-9.208c0.998-1.791,2.368-4.513,0.467-6.055"/>
				</g>
			</g>
			<g>
				<path style="fill:#FFFFFF;stroke:#000000;stroke-linecap:round;stroke-linejoin:round;stroke-miterlimit:10;" d="
					M289.571,277.638c1.934,2.742,4.632,4.792,7.538,6.397c3.744,2.068,6.775,4.138,11.208,4.224
					c4.239,0.083,8.715-0.747,12.947-1.092c3.58-0.292,7.161-0.733,10.744-0.949c5.603-0.34,11.388-0.447,16.898,0.633
					c4.511,0.885,8.374,2.846,12.459,4.801c3.881,1.858,8.831,2.039,13.146,1.608c1.751-0.174,3.4-0.843,4.997-1.603
					c1.979-0.941,2.43-0.553,4.341,0.011c1.117-2.492-1.39-4.64-2.154-6.683c-0.871-2.323,0.15-5.551,0.156-8.089
					c0.007-3.377-0.898-7.027-2.65-9.91c-2.036-3.346-4.657-3.813-8.12-4.767c-2.491-0.689-4.959-1.503-7.32-2.249
					c0.13-3.075-0.446-5.806-3.298-7.354c-4.486-2.434-10.435-1.711-15.336-1.522c-6.245,0.241-11.753,2.655-17.028,5.776
					c-1.941,1.149-3.568,2.471-5.306,3.895c-2.129,1.748-3.546,4.113-5.468,6.095c-2.598,2.677-5.633,4.452-8.671,6.554
					c-2.549,1.765-4.746,3.94-7.493,5.438c-1.64,0.895-3.304,1.342-5.19,1.128C294.247,279.784,291.311,277.4,289.571,277.638z"/>
				<g>
					<path style="fill:none;stroke:#000000;stroke-linecap:round;stroke-linejoin:round;stroke-miterlimit:10;" d="M300.971,280.293
						c2.331,0.22,6.195-1.55,8.318-2.529c2.719-1.258,5.52-2.887,8.048-4.498c3.675-2.341,7.205-4.998,10.961-7.195
						c6.617-3.868,13.961-8.658,22.014-8.263"/>
					<path style="fill:none;stroke:#000000;stroke-linecap:round;stroke-linejoin:round;stroke-miterlimit:10;" d="M295.973,281.385
						c2.315,0.224,4.157,1.134,6.357,1.721c2.483,0.662,5.145,0.525,7.695,0.431c4.052-0.148,8.101-0.69,12.139-1.058
						c6.931-0.631,13.61-1.458,20.493,0c3.522,0.746,6.64,2.192,9.683,4.024c1.806,1.088,4.874,2.813,6.602,3.987"/>
					<path style="fill:none;stroke:#000000;stroke-linecap:round;stroke-linejoin:round;stroke-miterlimit:10;" d="M302.221,283.103
						c2.353,1.09,6.911-0.705,9.359-1.215c3.777-0.786,7.605-1.438,11.421-2.028c7.156-1.108,14.281-2.065,21.534-2.065
						c5.983,0,11.93,1.614,17.636,3.393c4.344,1.354,8.111,3.985,12.535,5.235c1.852,0.521,3.464,1.136,5.115,2.111
						c1.139,0.671,2.112,1.823,3.254,2.403c0.002,0.26,0.112,0.375,0.183,0.598"/>
					<path style="fill:none;stroke:#000000;stroke-linecap:round;stroke-linejoin:round;stroke-miterlimit:10;" d="M321.598,280.08
						c2.03,0.171,12.806-3.671,7.782-2.13c-3.141,0.963,5.99-2.207,9.026-3.435c4.694-1.898,9.299-3.805,14.125-5.266
						c6.343-1.92,13.497-3.841,20.108-3.791"/>
					<path style="fill:none;stroke:#000000;stroke-linecap:round;stroke-linejoin:round;stroke-miterlimit:10;" d="M363.739,259.682
						c-8.657,2.324-17.392,6.911-25.414,11.397c-2.524,1.411-4.977,3.266-7.375,4.877c-1.388,0.93-2.561,2.284-4.217,2.774"/>
				</g>
			</g>
			<g>
				<path style="fill:#FFFFFF;stroke:#000000;stroke-linecap:round;stroke-linejoin:round;stroke-miterlimit:10;" d="
					M336.305,282.905c3.3,0.381-1.473-4.27-3.59-4.372c-3.511-0.172-5.748-1.93-9.057-2.85c-4.282-1.191-8.913-1.128-13.304-1.366
					c-4.9-0.267-6.465-3.663-9.181-7.183c-1.063-1.378-2.451-2.353-4.174-2.771c-1.886-0.46-3.624,0.353-5.479,0.089
					c-0.614-0.961-0.508-2.061-1.242-3.095c-1.076-1.518-1.775-1.861-3.665-1.874c-1.754-0.011-2.646-0.336-3.827-1.597
					c-1.274-1.362-1.655-2.417-3.753-2.627c-1.19-0.119-3.078,0.439-4.049-0.188c-1.002-0.648-0.858-2.025-1.014-3.075
					c-0.326-2.177-0.633-8.26-3.09-7.191c-3.59,1.562-1.625,8.386,0.282,16.528c1.904,8.143,0.813,23.327,17.362,22.839
					c0,0,4.842,6.276,15.303,5.314C314.29,288.526,321.472,281.187,336.305,282.905z"/>
				<g>
					<path style="fill:none;stroke:#000000;stroke-linecap:round;stroke-linejoin:round;stroke-miterlimit:10;" d="M288.525,284.173
						c-0.808-1.954-0.466-5.538-0.466-7.585"/>
					<path style="fill:none;stroke:#000000;stroke-linecap:round;stroke-linejoin:round;stroke-miterlimit:10;" d="M291.51,264.336
						c-0.177,1.789-1.211,3.465-1.726,5.177"/>
					<path style="fill:none;stroke:#000000;stroke-linecap:round;stroke-linejoin:round;stroke-miterlimit:10;" d="M314.573,274.502
						c-1.717,0.66-4.192,1.289-5.741,2.326c-1.542,1.031-2.623,2.651-4.075,3.778"/>
					<path style="fill:none;stroke:#000000;stroke-linecap:round;stroke-linejoin:round;stroke-miterlimit:10;" d="M318.03,274.708
						c-0.508-0.057-1.08,0.29-1.538,0.464c-0.827,0.314-1.664,0.577-2.478,0.924c-1.647,0.699-3.032,1.668-4.045,3.159"/>
					<path style="fill:none;stroke:#000000;stroke-linecap:round;stroke-linejoin:round;stroke-miterlimit:10;" d="M298.751,264.905
						c0.274,0.291,0.354,0.801,0.412,1.185c0.131,0.841,0.269,1.684,0.239,2.537c-0.028,0.809-0.245,1.607-0.333,2.412
						c-0.087,0.769-0.278,1.539-0.468,2.29c-0.336,1.347-0.641,2.698-0.885,4.065c-0.204,1.149-0.838,2.735-0.296,3.868"/>
					<path style="fill:none;stroke:#000000;stroke-linecap:round;stroke-linejoin:round;stroke-miterlimit:10;" d="M302.592,269.28
						c-0.279,1.101-0.359,2.241-0.649,3.343c-0.374,1.43-0.714,2.868-1.063,4.305"/>
					<path style="fill:none;stroke:#000000;stroke-linecap:round;stroke-linejoin:round;stroke-miterlimit:10;" d="M273.962,252.457
						c0.425,2.948,0.624,5.991,1,8.704c0.229,1.654,0.364,3.26,0.869,4.856c0.538,1.7,1.137,3.376,1.529,5.119"/>
					<path style="fill:none;stroke:#000000;stroke-linecap:round;stroke-linejoin:round;stroke-miterlimit:10;" d="M281.827,256.872
						c1.837,3.954,1.059,8.987,1.059,13.219"/>
				</g>
			</g>
		</g>
		<g>
			<g>
				<path style="fill:#FFFFFF;stroke:#000000;stroke-linecap:round;stroke-linejoin:round;stroke-miterlimit:10;" d="
					M242.646,376.143c-1.513,0.892-9.296,0.259-10.972-0.41c-3.161-1.26-5.513-3.743-7.347-6.526
					c-2.741-4.16-5.206-10.041-5.934-15.032c-0.581-3.979-0.265-7.959-0.752-11.942c-0.721-5.895-3.445-11.115-7.489-15.449
					c-3.607-3.865-6.167-7.016-7.339-12.235c-1.161-5.178,0.133-9.753,2.979-14.265c2.996-4.751,9.478-6.941,14.546-8.894
					c2.653-1.022,5.407-1.637,7.909-2.988c1.007-0.542,1.88-0.999,2.693-1.832c0.52-0.533,0.968-1.681,1.628-2.01
					c1.347-0.672,1.985,1.142,3.512,1.873c2.179,1.041,4.67,0.133,7.011,0.642c2.814,0.611,4.847,1.94,6.966,3.819
					c0.708,0.627,1.292,1.438,2.024,2.021c0.988,0.789,0.095,0.651,1.45,0.429c0.848-0.14,1.671-0.823,2.549-0.876
					c1.698-0.1,2.926,1.097,4.066,2.145c2.523,2.317,3.926,4.55,5.438,7.569c2.297,4.584,6.392,9.921,3.059,14.939
					c-2.467,3.714-5.005,6.942-6.473,11.281c-0.817,2.415-1.029,4.918-1.775,7.346c-0.785,2.556-1.854,5.025-2.584,7.574
					c-1.804,6.29-3.742,12.44-6.091,18.576C249.874,366.718,247.309,373.394,242.646,376.143z"/>
				<g>
					<path style="fill:none;stroke:#000000;stroke-linecap:round;stroke-linejoin:round;stroke-miterlimit:10;" d="M205.363,301.078
						c-0.435,2.572-0.732,5.033,0.999,7.294c1.981,2.59,4.964,2.051,7.66,3.221c4.894,2.126-2.866,6.051,2.01,8.959
						c4.911,2.927,8.841,7.597,8.927,13.654c0.091,6.446-2.557,12.621-3.204,18.974c-0.503,4.927,1.956,13.572,4.812,18.919"/>
					<path style="fill:none;stroke:#000000;stroke-linecap:round;stroke-linejoin:round;stroke-miterlimit:10;" d="M231.812,285.326
						c-0.607,1.324-1.007,2.348-1.169,3.417c-0.309,2.063-0.055,4.479,0.383,6.494c1.195,5.498,3.725,10.523,3.278,16.24
						c-0.924,11.836-2.756,23.313-0.445,35.168c0.748,3.838,2.027,7.489,2.534,11.388c0.408,3.145,0.587,6.247,0.779,9.4
						c0.149,2.435,0.934,6.35-0.268,8.522"/>
					<path style="fill:none;stroke:#000000;stroke-linecap:round;stroke-linejoin:round;stroke-miterlimit:10;" d="M238.979,376.317
						c1.905-0.5,3.859-5.144,4.675-6.689c1.936-3.661,3.057-7.827,3.591-11.912c1.217-9.311,0.824-18.989,1.54-28.372
						c0.552-7.247,0.444-14.345,2.012-21.45c0.808-3.664,1.477-6.982,1.21-10.703c-0.127-1.767-1.287-5.056-2.718-6.957"/>
					<path style="fill:none;stroke:#000000;stroke-linecap:round;stroke-linejoin:round;stroke-miterlimit:10;" d="M248.252,345.493
						c1.089-1.881,1.19-4.906,1.51-7.078c0.42-2.845,0.452-5.74,1.011-8.545c1.213-6.092,3.797-11.804,5.593-17.695
						c1.222-4.008,1.638-8.354,0.889-12.503c-0.21-1.159-1.411-7.113-2.644-6.734"/>
					<path style="fill:none;stroke:#000000;stroke-linecap:round;stroke-linejoin:round;stroke-miterlimit:10;" d="M218.719,291.769
						c1.441-0.323,2.806,3.071,3.132,4.018c1.066,3.09,2.183,6.015,2.756,9.25c1.117,6.304,1.765,12.652,2.984,18.936
						c0.688,3.545,1.911,7.018,3.067,10.436c0.516,1.526,1.306,2.534,2.091,3.818"/>
				</g>
			</g>
			<g>
				<path style="fill:#FFFFFF;stroke:#000000;stroke-linecap:round;stroke-linejoin:round;stroke-miterlimit:10;" d="
					M237.153,374.396c3.18-2.385,4.259-7.911,5.016-11.568c0.993-4.779,2.158-9.466,3.177-14.268
					c1.776-8.367,2.891-18.058,7.309-25.503c3.332-5.613,9.271-6.691,14.402-9.857c6.649-4.103,12.153-10.971,21.02-9.18
					c7.027,1.421,10.182,8.014,15.728,11.56c3.256,2.082,12.261,1.373,13.242,5.88c-2.206,1.737-2.316,2.77-0.35,4.577
					c2.494,2.292,4.823,3.821,6.469,6.981c0.515,0.986,1.159,2.061,0.617,3.194c-0.504,1.052-2.101,0.767-2.617,1.521
					c-1.075,1.568,1.143,5.862,1.462,7.748c1.066,6.299,1.845,14.868-1.292,20.67c-2.541,4.696-8.909,7.172-13.602,9.012
					c-4.599,1.801-9.159,3.482-14.114,3.474c-6.72-0.012-13.269-2.474-20.018-1.472c-5.632,0.836-11.145,3.002-16.407,5.046
					c-2.949,1.146-6.387,2.603-9.495,3.198c-4.017,0.771-7.223-0.457-10.509-2.559L237.153,374.396z"/>
				<g>
					<path style="fill:none;stroke:#000000;stroke-linecap:round;stroke-linejoin:round;stroke-miterlimit:10;" d="M269.107,311.832
						c-5.719,5.242-9.608,15.295-11.905,30.753c-2.297,15.46-11.814,29.73-20.048,31.811"/>
					<path style="fill:none;stroke:#000000;stroke-linecap:round;stroke-linejoin:round;stroke-miterlimit:10;" d="M237.16,375.806
						c0,0,13.732-1.822,23.536-30.539c9.805-28.718,28.017-41.303,33.586-38.211"/>
					<path style="fill:none;stroke:#000000;stroke-linecap:round;stroke-linejoin:round;stroke-miterlimit:10;" d="M315.31,323.924
						c0,0-26.531-0.621-42.929,19.036c-16.398,19.658-26.464,37.595-35.212,34.817c0,0,3.545,5.059,25.433-15.752
						c21.889-20.809,33.678-25.267,42.186-23.913c8.508,1.354,16.378-0.379,16.378-0.379"/>
					<path style="fill:none;stroke:#000000;stroke-linecap:round;stroke-linejoin:round;stroke-miterlimit:10;" d="M323.042,348.205
						c0,0-15.46-8.847-31.04-3.552c-15.579,5.296-32.184,20.014-33.852,21.48"/>
					<path style="fill:none;stroke:#000000;stroke-linecap:round;stroke-linejoin:round;stroke-miterlimit:10;" d="M237.181,380.456
						c0,0,4.324,6.108,29.841-6.756c25.518-12.864,45.772-27.026,55.414-10.171"/>
				</g>
			</g>
			<g>
				<path style="fill:#FFFFFF;stroke:#000000;stroke-linecap:round;stroke-linejoin:round;stroke-miterlimit:10;" d="
					M231.648,388.019c2.095,6.156,7.025,10.63,13.783,10.863c4.812,0.168,9.591-1.442,14.434-1.3
					c8.083,0.236,13.81,5.278,20.903,8.398c5.702,2.507,9.975,3.986,16.088,1.843c2.66-0.934,4.056-2.792,6.273-4.414
					c2.042-1.493,3.239-0.265,5.293-1.192c0.961-0.435,1.148-1.638,2.413-1.891c1.178-0.235,2.066,0.631,3.246-0.017
					c0.26-1.725-1.369-3.082-1.177-4.97c0.231-2.262,1.758-4.464,1.898-6.766c0.313-5.109-2.73-13.452-5.615-17.62
					c-1.653-2.39-3.73-4.555-5.95-6.453c-1.423-1.219-4.589-2.311-5.602-3.68c-1.232-1.666,0.618-3.645-0.63-5.443
					c-1.288-1.855-5.308-2.498-7.265-2.82c-11.935-1.968-20.099,11.284-29.157,16.733c-3.722,2.239-8.029,4.515-12.387,5.08
					c-2.543,0.33-8.418-0.753-10.198,0.444L231.648,388.019z"/>
				<g>
					<path style="fill:none;stroke:#000000;stroke-linecap:round;stroke-linejoin:round;stroke-miterlimit:10;" d="M238,374.815
						c-0.522,3.05,0.157,7.11,2.231,9.547c3.226,3.79,7.439,2.351,10.979,0.148c2.523-1.569,6.609-4.455,9.828-3.33
						c2.383,0.833,3.028,3.758,2.317,5.943c4.143-1.097,10.189-2.545,13.844,0.824c2.911,2.685,1.569,7.176,5.934,8.349
						c2.225,0.599,3.903,0.776,5.615,2.504c1.363,1.378,2.35,3.308,3.591,4.724c2.451,2.796,4.609,3.709,8.412,1.852"/>
					<path style="fill:none;stroke:#000000;stroke-linecap:round;stroke-linejoin:round;stroke-miterlimit:10;" d="M263.421,386.935
						c0.869-0.494,1.607-1.299,2.4-1.907c1.471-1.13,3.059-2.1,4.681-3.001c3.657-2.033,7.486-3.516,11.497-4.645
						c5.268-1.484,11.06-2.187,16.509-1.629c3.902,0.4,7.571,1.3,11.004,3.225c1.218,0.682,3.906,1.714,4.228,3.207"/>
					<path style="fill:none;stroke:#000000;stroke-linecap:round;stroke-linejoin:round;stroke-miterlimit:10;" d="M272.604,385.958
						c9.82-2.89,20.997-0.202,30.094,3.811c2.596,1.145,5.056,2.633,7.354,4.287c0.933,0.671,2.042,1.32,2.747,2.137"/>
					<path style="fill:none;stroke:#000000;stroke-linecap:round;stroke-linejoin:round;stroke-miterlimit:10;" d="M277.309,387.814
						c1.599-0.186,3.452,0.651,5.005,0.939c2.315,0.43,4.57,1.34,6.798,2.087c2.215,0.742,4.223,2.226,6.33,3.213
						c1.796,0.843,3.531,1.555,5.236,2.589c2.583,1.566,5.362,3.309,7.257,5.557"/>
					<path style="fill:none;stroke:#000000;stroke-linecap:round;stroke-linejoin:round;stroke-miterlimit:10;" d="M238.063,374.925
						c0.842,0.422,1.351,1.456,2.055,2.079c1.916,1.692,4.528,2.549,7.014,2.846c3.623,0.433,7.861,0.312,11.2-1.345
						c6.281-3.117,11.418-7.908,17.011-12.037c5.536-4.088,12.732-7.176,19.674-6.65c0.69,0.052,1.73,0.18,2.313,0.536"/>
					<path style="fill:none;stroke:#000000;stroke-linecap:round;stroke-linejoin:round;stroke-miterlimit:10;" d="M255.371,379.624
						c0.757-0.054,3.802-2.004,4.409-2.486c1.415-1.121,2.833-2.243,4.233-3.379c2.762-2.239,5.17-4.957,7.77-7.378
						c3.863-3.596,8.145-6.801,12.975-8.95c2.617-1.166,5.076-2.025,7.924-2.124c1.446-0.051,2.773,0.143,4.2,0.127"/>
				</g>
			</g>
			<g>
				<path style="fill:#FFFFFF;stroke:#000000;stroke-linecap:round;stroke-linejoin:round;stroke-miterlimit:10;" d="
					M238.035,376.583c3.167,9.363,5.178,20.699-1.203,29.229c-2.296,3.067-7.314,5.681-11.287,5.531
					c-4.195-0.16-7.515-3.196-10.041-6.211c-3.354-4.003-5.744-7.242-7.441-12.292c-0.796-2.372-2.254-4.416-3.47-6.602
					c-1.809-3.248-3.388-6.543-4.58-10.095c-3.092-9.21-11.66-14.893-15.292-23.878c-1.124-2.782-1.918-5.703-3.04-8.496
					c-0.8-1.991-2.492-3.836-3.717-5.618c-1.032-1.502-2.116-2.995-2.594-4.79c4.688,5.598,13.559,2.349,19.579,2.558
					c5.592,0.196,10.766,2.021,16.016,3.778c4.341,1.453,8.993,4.029,12.011,7.622c3.581,4.263,4.786,10.912,6.544,16.108
					c1.265,3.736,2.843,6.11,5.332,9.059C235.721,373.515,237.248,375.61,238.035,376.583z"/>
				<g>
					<path style="fill:none;stroke:#000000;stroke-linecap:round;stroke-linejoin:round;stroke-miterlimit:10;" d="M175.417,333.474
						c0.576,0.718,0.693,1.731,1.262,2.526c0.959,1.337,2.575,2.116,3.775,3.201c3.066,2.771,6.73,4.771,10.292,6.831
						c3.636,2.108,6.694,2.686,8.858,6.649c1.602,2.939,3.15,6.675,3.495,10.045c0.273,2.68,0.235,5.391,0.978,7.987
						c0.701,2.449,2.551,4.274,3.894,6.427c1.328,2.134,2.308,4.664,2.926,7.136c0.664,2.65,0.375,5.482,0.867,8.173
						c0.469,2.568,1.176,4.981,2.025,7.493c0.541,1.598,1.453,4.486,2.975,6.606"/>
					<path style="fill:none;stroke:#000000;stroke-linecap:round;stroke-linejoin:round;stroke-miterlimit:10;" d="M186.492,336.564
						c2.996,1.316,6.816,3.046,8.875,4.43c3.84,2.58,6.968,5.415,10,8.912c5.347,6.167,10.337,12.767,16.212,18.434
						c1.704,1.645,3.602,3.016,5.409,4.536c1.462,1.229,2.635,2.785,4.246,3.796c2.063,1.296,4.827,1.719,6.3-0.473"/>
					<path style="fill:none;stroke:#000000;stroke-linecap:round;stroke-linejoin:round;stroke-miterlimit:10;" d="M203.799,368.767
						c0.854,1.004,1.23,2.283,2.245,3.357c1.968,2.084,4.405,3.539,7.086,4.58c4.327,1.684,8.852,2.958,13.357,3.972
						c2.681,0.603,5.574,0.808,8.097-0.517c1.783-0.936,2.392-2.643,3.227-4.238"/>
					<path style="fill:none;stroke:#000000;stroke-linecap:round;stroke-linejoin:round;stroke-miterlimit:10;" d="M211.928,392.251
						c6.782,4.262,21.677,6.279,25.168-3.148c0.886-2.389,1.386-4.379,1.181-6.875c-0.144-1.749-0.825-4.698-0.354-5.977"/>
					<path style="fill:none;stroke:#000000;stroke-linecap:round;stroke-linejoin:round;stroke-miterlimit:10;" d="M237.534,376.198
						c-1.481,1.747-2.774,3.402-5.424,3.081c-2.792-0.338-6.285-2.443-8.419-4.133c-2.814-2.226-5.455-4.163-7.732-6.993
						c-2.028-2.522-3.754-5.474-6.138-7.656c-2.615-2.393-4.769-5.046-7.702-7.054c-1.375-0.943-2.971-2.63-4.381-3.134"/>
					<path style="fill:none;stroke:#000000;stroke-linecap:round;stroke-linejoin:round;stroke-miterlimit:10;" d="M213.51,398.697
						c1.216,1.479,2.837,3.067,4.75,3.561c3.041,0.784,6.079,0.679,9.136,0.104c3.742-0.702,7.321-2.802,9.555-5.958
						c2.534-3.581,2.923-8.863,2.165-13.035c-0.398-2.2-1.218-4.909-0.889-7.053"/>
				</g>
			</g>
		</g>
	</g>
</g>
</svg>
