<svg width="269" height="264" viewBox="0 0 269 264" fill="none" xmlns="http://www.w3.org/2000/svg">
<path fill-rule="evenodd" clip-rule="evenodd" d="M140.042 218.277C107.768 253.483 107.159 253.282 103.136 251.286C100.966 250.209 93.9706 253.018 87.5906 257.527C79.949 262.928 74.1383 264.972 70.5629 263.517C67.5778 262.301 64.7073 261.735 64.1842 262.258C63.661 262.782 60.8873 260.864 58.0203 257.997C53.8653 253.842 53.4703 252.122 56.0734 249.518C57.8696 247.722 58.1664 245.08 56.7329 243.646C55.2994 242.213 53.2584 241.908 52.1973 242.969C49.4085 245.758 43.4492 241.409 45.8132 238.311C46.9058 236.879 48.274 235.51 48.8537 235.27C49.4334 235.03 48.7349 233.66 47.3015 232.227C45.868 230.793 43.5769 230.739 42.2103 232.105C40.8436 233.472 38.5526 233.417 37.1191 231.984C35.6856 230.55 34.9846 228.906 35.5612 228.329C36.1146 227.776 36.1912 223.071 35.7506 217.71C34.0085 218.447 32.601 218.531 31.8787 217.808C30.4453 216.375 30.9336 213.509 32.9641 211.439C34.0763 210.306 35.1677 208.704 35.9874 207.097C36.3676 204.708 36.9864 202.286 37.878 199.774L37.9871 199.068L33.2589 200.304C30.5538 201.011 31.2271 198.821 35.1426 194.047C35.9334 192.765 34.9526 190.935 32.4558 189.075C32.0184 188.749 31.6164 188.404 31.2524 188.045C26.0144 193.981 21.2822 200.115 19.7037 203.645C16.3949 211.045 14.4962 212.199 12.5988 207.963C10.9773 204.342 13.9594 193.217 17.2922 190.454C19.0394 189.005 19.4075 186.104 18.1103 184.007C16.8131 181.909 17.3455 178.821 19.2932 177.144C19.7735 176.73 20.201 176.248 20.563 175.729C18.2075 174.668 18.0206 173.444 17.6367 169.12C17.5631 168.289 17.3907 167.395 17.1428 166.491C15.339 168.201 13.0366 170.64 10.5025 173.572C-3.96761 190.313 -2.66177 181.342 12.2085 161.852C12.7284 161.171 13.2456 160.486 13.7576 159.803C13.6886 159.728 13.6194 159.655 13.55 159.586C11.594 157.63 10.675 153.846 11.5077 151.176C12.802 147.027 12.4508 146.316 9.08893 146.273C6.9259 146.245 18.8916 132.675 35.6794 116.116C52.4672 99.5571 65.0105 88.8423 63.5534 92.3052C61.2901 97.6841 61.4561 98.2846 64.693 96.4266C65.9152 95.7251 72.4146 89.8909 81.4571 81.4529C89.8951 72.4104 95.7294 65.9109 96.4308 64.6888C98.2888 61.4519 97.6884 61.2858 92.3095 63.5492C88.8466 65.0063 99.5613 52.4629 116.12 35.6752C132.679 18.8874 146.249 6.92166 146.277 9.0847C146.32 12.4466 147.031 12.7977 151.18 11.5035C153.85 10.6708 157.634 11.5898 159.59 13.5457C159.66 13.6151 159.732 13.6844 159.807 13.7534C160.491 13.2414 161.175 12.7242 161.856 12.2043C181.346 -2.66601 190.317 -3.97183 173.576 10.4983C170.644 13.0324 168.205 15.3348 166.495 17.1385C167.4 17.3865 168.294 17.5588 169.124 17.6325C173.449 18.0163 174.672 18.2033 175.733 20.5587C176.252 20.1967 176.734 19.7693 177.148 19.289C178.825 17.3413 181.914 16.8089 184.011 18.1061C186.108 19.4033 189.009 19.0351 190.458 17.288C192.354 15.0018 198.184 12.8807 202.827 12.2973C203.377 12.1631 203.859 12.1192 204.276 12.1642C205.793 12.081 207.097 12.2048 207.967 12.5946C208.179 12.6894 208.377 12.7842 208.562 12.8792C209.968 12.7394 211.291 12.2163 212.145 11.3627C214.555 8.95257 215.836 9.43153 219.737 14.1963C223.315 18.5675 224.919 19.4395 226.49 17.8684C227.623 16.7352 229.028 16.8741 229.611 18.1769C229.779 18.5517 230.117 18.9997 230.576 19.4803C235.196 16.2649 238.692 14.6521 239.513 15.9579C240.432 17.4188 239.981 21.3825 238.528 24.9882C239.028 25.4429 239.142 25.7601 238.753 25.8402C237.33 26.133 237.602 31.5259 238.699 35.832C239.687 36.9441 240.504 38.8035 240.961 40.8026C242.072 41.8065 243.094 41.3072 243.264 39.6328C243.505 37.2666 243.895 37.7814 244.821 41.6867C245.025 42.5476 245.328 43.5353 245.691 44.5598C246.641 43.42 247.777 41.9704 249.127 40.1942C253.608 34.2956 256.902 31.1553 256.448 33.2159C255.836 35.9934 256.725 37.5223 259.889 39.1285C263.166 40.7926 263.546 43.3186 261.529 50.0231C258.691 59.4558 258.358 66.904 260.424 70.0281C262.493 69.8861 264.629 70.4399 265.891 71.702C266.125 71.9364 265.999 72.4848 265.569 73.277C268.659 76.4951 269.054 83.3502 266.03 90.0349C264.08 94.3446 263.32 97.3612 264.339 96.7383C265.857 95.8117 266.372 96.3947 267.175 99.9542C267.715 102.345 264.969 106.525 261.075 109.243C256.847 112.194 255.025 115.204 256.553 116.715C259.728 119.852 244.452 136.481 228.956 146.758C206.342 161.754 201.167 165.965 206.472 165.054C210.677 164.332 210.546 165.193 205.731 169.908C202.513 173.059 198.85 175.012 197.593 174.248C196.502 173.585 194.87 173.748 192.615 174.799C191.173 177.998 190.471 180.343 190.827 181.14C191.288 182.169 190.547 184.129 189.181 185.496C186.052 188.625 184.468 185.396 186.428 179.884C186.612 179.365 186.778 178.843 186.922 178.339C181.206 182.532 173.279 189.749 162.666 200.346C150.825 212.169 143.608 217.905 140.042 218.277ZM216.456 31.1424C219.542 28.2544 222.72 25.5026 225.697 23.135C223.899 21.0354 221.998 19.9905 221.462 20.8119C220.922 21.6386 218.12 25.0985 215.235 28.5C213.976 29.9843 213.08 31.1475 212.541 32.0703C213.847 31.2072 215.293 30.8739 216.456 31.1424ZM21.8059 183.881C21.1738 183.249 20.379 181.559 20.0397 180.127C19.7005 178.694 20.6649 178.764 22.183 180.282C23.7011 181.8 24.4959 183.49 23.9493 184.036C23.4026 184.583 22.4381 184.513 21.8059 183.881ZM145.11 15.9617C143.338 14.8661 142.363 13.496 142.942 12.917C143.521 12.3381 145.167 13.0373 146.601 14.4708C148.034 15.9043 149.01 17.2744 148.769 17.5155C148.528 17.7565 146.881 17.0573 145.11 15.9617ZM114.592 42.5954C119.176 37.0657 127.45 28.7912 132.98 24.2076C138.51 19.624 134.759 24.1483 124.646 34.2616C114.533 44.3749 110.008 48.1251 114.592 42.5954ZM183.885 21.8017C183.253 21.1696 181.564 20.3748 180.131 20.0355C178.698 19.6962 178.768 20.6607 180.286 22.1788C181.805 23.6969 183.494 24.4917 184.04 23.945C184.587 23.3983 184.517 22.4338 183.885 21.8017ZM15.9659 145.105C14.8703 143.334 13.5003 142.358 12.9213 142.937C12.3423 143.516 13.0415 145.163 14.475 146.596C15.9085 148.03 17.2786 149.005 17.5197 148.764C17.7607 148.523 17.0616 146.877 15.9659 145.105ZM42.5996 114.588C37.0699 119.171 28.7954 127.446 24.2119 132.976C19.6283 138.505 24.1525 134.755 34.2658 124.642C44.3791 114.529 48.1293 110.004 42.5996 114.588ZM109.035 239.792C107.184 240.4 105.171 242.413 104.563 244.264C103.954 246.115 105.469 245.617 107.929 243.157C110.389 240.697 110.887 239.183 109.035 239.792Z" fill="#E7D1C3"/>
</svg>
