<svg version="1.1" xmlns:xlink="http://www.w3.org/1999/xlink" width="512" height="512" x="0" y="0" viewBox="0 0 682.667 682.667" xml:space="preserve"><defs><path fill="none" stroke="#967969" d="M0 0v-31.437" id="reuse-0"/><path fill="none" stroke="#967969" d="M0 0h-31.437" id="reuse-1"/></defs><g><defs><clipPath id="a" clipPathUnits="userSpaceOnUse"><path d="M0 512h512V0H0Z" fill="#967969" opacity="1" data-original="#000000"/></clipPath></defs><use transform="matrix(1.33333 0 0 -1.33333 542.822 116.994)" stroke-width="15" stroke-linecap="round" stroke-linejoin="round" stroke-miterlimit="10" stroke-dasharray="none" data-original="#000000" opacity="1" xlink:href="#reuse-0" stroke-opacity="1"/><use transform="matrix(1.33333 0 0 -1.33333 563.78 137.953)" stroke-width="15" stroke-linecap="round" stroke-linejoin="round" stroke-miterlimit="10" stroke-dasharray="none" data-original="#000000" opacity="1" xlink:href="#reuse-1" stroke-opacity="1"/><use transform="matrix(1.33333 0 0 -1.33333 93.315 275.872)" stroke-width="15" stroke-linecap="round" stroke-linejoin="round" stroke-miterlimit="10" stroke-dasharray="none" data-original="#000000" opacity="1" xlink:href="#reuse-0" stroke-opacity="1"/><use transform="matrix(1.33333 0 0 -1.33333 114.273 296.83)" stroke-width="15" stroke-linecap="round" stroke-linejoin="round" stroke-miterlimit="10" stroke-dasharray="none" data-original="#000000" opacity="1" xlink:href="#reuse-1" stroke-opacity="1"/><g clip-path="url(#a)" transform="matrix(1.33333 0 0 -1.33333 0 682.667)" fill="none" stroke="#967969" stroke-width="15" stroke-linecap="round" stroke-linejoin="round" stroke-miterlimit="10" stroke-dasharray="none" stroke-opacity="1"><path d="M103.165 187.647c18.896.15 19.005 14.336 38.102 14.336 19.196 0 19.196-14.343 38.393-14.343 19.194 0 19.194 14.343 38.39 14.343s19.197-14.343 38.394-14.343c19.198 0 19.198 14.343 38.395 14.343s19.198-14.343 38.396-14.343c19.199 0 19.199 14.343 38.396 14.343 18.789 0 19.203-13.726 37.204-14.315" data-original="#000000" opacity="1"/><path d="M142.36 289.474c18.071-.343 20.811-13.958 39.277-13.958 18.702 0 18.702 13.974 37.402 13.974 18.703 0 18.703-13.974 37.406-13.974s18.703 13.974 37.406 13.974c18.704 0 18.704-13.974 37.408-13.974 18.604 0 19.963 13.819 38.382 13.967" data-original="#000000" opacity="1"/><path d="M179.895 363.496c16.793 1.164 21.676 14.809 39.579 14.809 18.703 0 18.703-13.975 37.406-13.975s18.703 13.975 37.407 13.975 18.704-13.975 37.408-13.975l.409.041" data-original="#000000" opacity="1"/><path d="M332.104 335.571v74.2c0 7.256-5.882 13.137-13.138 13.137H193.033c-7.256 0-13.138-5.881-13.138-13.137v-74.2" data-original="#000000" opacity="1"/><path d="M204.499 335.571h-49.002c-7.256 0-13.138-5.882-13.138-13.137v-77.763" data-original="#000000" opacity="1"/><path d="M369.64 244.67v77.763c0 7.256-5.882 13.137-13.138 13.137H239.534" data-original="#000000" opacity="1"/><path d="M408.835 139.66v91.874c0 7.255-5.882 13.136-13.138 13.136H116.303c-7.256 0-13.138-5.881-13.138-13.136V139.66" data-original="#000000" opacity="1"/><path d="M168.78 139.66h271.038c9.894 0 17.914-8.021 17.914-17.914s-8.02-17.915-17.914-17.915H72.181c-9.893 0-17.914 8.021-17.914 17.915s8.021 17.914 17.914 17.914h61.042" data-original="#000000" opacity="1"/><path d="M239.592 103.832V90.07c0-23.178-17.612-42.562-40.685-44.777l-29.171-2.801c-14.833-1.425-26.158-13.887-26.158-28.789a6.203 6.203 0 0 1 6.203-6.203h212.438a6.203 6.203 0 0 1 6.203 6.203c0 14.902-11.323 27.364-26.157 28.789l-29.172 2.801c-23.072 2.215-40.684 21.599-40.684 44.777v13.762" data-original="#000000" opacity="1"/><path d="M263.728 422.909c14.368 7.253 43.767 25.433 43.772 52.779.004 16.023-12.782 28.813-28.804 28.812-10.484 0-16.537-4.967-19.715-8.973-1.57-1.978-4.563-1.912-6.171.035-3.394 4.111-9.764 9.213-20.357 8.927-15.538-.421-28.034-13.444-27.954-28.988.139-27.243 29.437-45.355 43.772-52.592" data-original="#000000" opacity="1"/></g></g></svg>